<?xml version="1.0" standalone="no"?>
<!-- Generator: Adobe Fireworks 10, Export SVG Extension by Aaron Beall (http://fireworks.abeall.com) . Version: 0.6.1  -->
<!DOCTYPE svg PUBLIC "-//W3C//DTD SVG 1.1//EN" "http://www.w3.org/Graphics/SVG/1.1/DTD/svg11.dtd">
<svg id="Untitled-%u9801%u9762%201" viewBox="0 0 504 56" style="background-color:#ffffff00" version="1.1"
	xmlns="http://www.w3.org/2000/svg" xmlns:xlink="http://www.w3.org/1999/xlink" xml:space="preserve"
	x="0px" y="0px" width="504px" height="56px"
>
	<g id="%u5716%u5C64%201">
		<g>
			<path d="M 134.241 36.3477 L 134.241 53.2396 L 129.1453 53.2396 L 129.1453 36.4933 C 123.306 42.9098 117.4642 47.5423 111.6265 50.3893 L 107.9146 45.8725 C 115.4042 42.1792 121.8373 37.2327 127.2124 31.0436 L 109.6473 31.0436 L 109.6473 25.9863 L 129.1453 25.9863 L 129.1453 8.6074 L 134.241 8.6074 L 134.241 25.9863 L 153.8374 25.9863 L 153.8374 31.0436 L 136.2227 31.0436 C 140.8391 36.9391 147.3738 42.0595 155.8151 46.4129 L 151.6108 50.5374 C 144.6158 46.2204 138.8222 41.4891 134.241 36.3477 ZM 112.3204 13.4689 L 116.4742 10.4269 C 119.0809 13.337 121.7389 17.1646 124.444 21.9136 L 120.0878 24.7145 C 117.2194 19.768 114.6287 16.0214 112.3204 13.4689 ZM 146.4166 10.3759 L 150.7184 13.2237 C 148.9049 16.6937 146.1989 20.5035 142.6038 24.6643 L 138.4996 21.569 C 142.1612 17.1856 144.7999 13.4527 146.4166 10.3759 Z" fill="#ffffff"/>
			<path d="M 134.4107 53.4119 L 128.9716 53.4119 L 128.9716 36.9415 C 123.2467 43.1743 117.4362 47.7519 111.7018 50.5447 L 111.5793 50.6078 L 107.6432 45.8134 L 107.8385 45.7179 C 115.1537 42.1023 121.5436 37.2287 126.8306 31.22 L 109.476 31.22 L 109.476 25.8132 L 128.9716 25.8132 L 128.9716 8.4334 L 134.4107 8.4334 L 134.4107 25.8132 L 154.0127 25.8132 L 154.0127 31.22 L 136.578 31.22 C 141.1504 36.9463 147.6459 42.0069 155.8951 46.26 L 156.1128 46.3692 L 151.6332 50.759 L 151.5212 50.6879 C 144.6943 46.4671 138.9423 41.799 134.4107 36.7991 L 134.4107 53.4119 ZM 129.3173 53.0632 L 134.069 53.0632 L 134.069 35.8954 L 134.3723 36.2336 C 138.8966 41.303 144.6879 46.0456 151.5869 50.3189 L 155.5245 46.4574 C 147.1946 42.1331 140.6566 36.9868 136.0866 31.152 L 135.8641 30.8753 L 153.6621 30.8753 L 153.6621 26.1611 L 134.069 26.1611 L 134.069 8.7829 L 129.3173 8.7829 L 129.3173 26.1611 L 109.821 26.1611 L 109.821 30.8753 L 127.5958 30.8753 L 127.3437 31.1617 C 122.0206 37.2821 115.5786 42.2536 108.1883 45.9315 L 111.6714 50.1701 C 117.425 47.3441 123.2611 42.7043 129.018 36.3792 L 129.3173 36.0443 L 129.3173 53.0632 ZM 120.0309 24.9532 L 119.9373 24.8003 C 117.0881 19.8942 114.4846 16.1169 112.1908 13.5854 L 112.0635 13.4381 L 116.5031 10.1923 L 116.6039 10.3071 C 119.2066 13.2173 121.8934 17.0958 124.5929 21.8254 L 124.6721 21.9719 L 120.0309 24.9532 ZM 112.5726 13.4948 C 114.8255 16.0149 117.3714 19.7057 120.1478 24.4661 L 124.2127 21.8586 C 121.5908 17.2722 118.9801 13.5069 116.4534 10.6575 L 112.5726 13.4948 ZM 142.6302 24.8998 L 138.2484 21.5981 L 138.3636 21.4565 C 141.9987 17.1039 144.6575 13.3491 146.2662 10.2958 L 146.3494 10.1235 L 150.9458 13.163 L 150.8713 13.303 C 149.0618 16.7681 146.3198 20.6305 142.7343 24.7768 L 142.6302 24.8998 ZM 138.7477 21.5415 L 142.5814 24.4257 C 146.0485 20.4023 148.7128 16.6524 150.4952 13.2804 L 146.4775 10.6251 C 144.8719 13.6396 142.2701 17.3102 138.7477 21.5415 Z" fill="#ffffff"/>
		</g>
		<g>
			<path d="M 174.0428 41.896 L 174.0428 24.0729 L 169.9819 24.0729 L 169.9819 19.2155 L 174.0428 19.2155 L 174.0428 9.1971 L 179.1426 9.1971 L 179.1426 19.2155 L 183.2964 19.2155 L 183.2964 24.0729 L 179.1426 24.0729 L 179.1426 39.3427 C 180.2263 38.6858 181.1715 38.0976 181.9606 37.5782 L 185.0292 41.604 C 181.4973 43.9259 176.8608 46.2204 171.1248 48.4784 L 168.9446 43.8118 C 170.8287 43.1225 172.5246 42.485 174.0428 41.896 ZM 188.9877 29.7742 C 187.1381 30.8794 185.0292 31.9829 182.653 33.0597 L 179.6332 28.8374 C 186.2993 25.9248 191.9737 22.2081 196.6613 17.692 L 199.3833 17.692 C 204.5879 22.0123 210.5153 25.5963 217.1461 28.4417 L 214.228 32.6673 C 211.7502 31.4861 209.5557 30.3948 207.6436 29.3778 L 207.6436 33.0112 L 188.9877 33.0112 L 188.9877 29.7742 ZM 203.5347 15.9259 L 192.9982 15.9259 L 192.9982 18.671 L 187.8992 18.671 L 187.8992 15.9259 L 181.2659 15.9259 L 181.2659 11.2586 L 187.8992 11.2586 L 187.8992 8.4108 L 192.9982 8.4108 L 192.9982 11.2586 L 203.5347 11.2586 L 203.5347 8.4108 L 208.632 8.4108 L 208.632 11.2586 L 215.5646 11.2586 L 215.5646 15.9259 L 208.632 15.9259 L 208.632 18.671 L 203.5347 18.671 L 203.5347 15.9259 ZM 190.2218 51.6174 L 190.2218 53.7792 L 185.1284 53.7792 L 185.1284 36.1988 C 185.1284 35.6802 185.3933 35.4165 185.9183 35.4165 L 211.5541 35.4165 C 212.2456 35.4488 212.5881 35.774 212.5881 36.3978 L 212.5881 53.7792 L 207.4948 53.7792 L 207.4948 51.6174 L 190.2218 51.6174 ZM 190.2218 46.9533 L 207.4948 46.9533 L 207.4948 40.7691 C 207.4948 40.3119 207.2474 40.0814 206.7512 40.0814 L 190.9173 40.0814 C 190.4202 40.1129 190.1906 40.3419 190.2218 40.7691 L 190.2218 46.9533 ZM 191.1662 28.3414 L 205.9141 28.3414 C 205.5795 28.0833 205.3002 27.8859 205.0681 27.7549 C 201.7035 25.5308 199.3609 23.7299 198.0411 22.3513 C 195.7305 24.7485 193.4391 26.7436 191.1662 28.3414 Z" fill="#ffffff"/>
			<path d="M 212.7634 53.9515 L 207.3203 53.9515 L 207.3203 51.7922 L 190.3978 51.7922 L 190.3978 53.9515 L 184.9571 53.9515 L 184.9571 41.8564 C 181.454 44.1387 176.8217 46.421 171.1873 48.6386 L 171.0336 48.6944 L 168.7086 43.7115 L 168.8895 43.6484 C 170.7102 42.981 172.3821 42.3531 173.87 41.7763 L 173.87 24.2485 L 169.8115 24.2485 L 169.8115 19.0391 L 173.87 19.0391 L 173.87 9.0224 L 179.3099 9.0224 L 179.3099 19.0391 L 183.4685 19.0391 L 183.4685 24.2485 L 179.3099 24.2485 L 179.3099 39.0377 C 180.2719 38.4592 181.1267 37.922 181.8694 37.4334 L 181.9991 37.3444 L 184.9571 41.2181 L 184.9571 36.1988 C 184.9571 35.5823 185.2997 35.2368 185.9183 35.2368 L 211.5541 35.2368 C 212.5553 35.2902 212.7634 35.8954 212.7634 36.3978 L 212.7634 53.9515 ZM 207.6636 53.6052 L 212.4209 53.6052 L 212.4209 36.3978 C 212.4209 35.8663 212.1487 35.6171 211.5429 35.5888 L 185.9183 35.5888 C 185.4877 35.5888 185.3005 35.7684 185.3005 36.1988 L 185.3005 53.6052 L 190.0521 53.6052 L 190.0521 51.4435 L 207.6636 51.4435 L 207.6636 53.6052 ZM 169.1824 43.9089 L 171.2089 48.2551 C 176.76 46.0642 181.3228 43.8086 184.7778 41.5587 L 181.9206 37.8096 C 181.1427 38.3185 180.2383 38.8888 179.2291 39.49 L 178.9698 39.6501 L 178.9698 23.9006 L 183.1235 23.9006 L 183.1235 19.387 L 178.9698 19.387 L 178.9698 9.3735 L 174.2141 9.3735 L 174.2141 19.387 L 170.1572 19.387 L 170.1572 23.9006 L 174.2141 23.9006 L 174.2141 42.0158 L 174.1029 42.0595 C 172.6351 42.6306 170.9799 43.2496 169.1824 43.9089 ZM 207.6636 47.1313 L 190.0521 47.1313 L 190.0521 40.7691 C 190.0345 40.5417 190.0881 40.3403 190.2154 40.193 C 190.3586 40.0239 190.5916 39.9277 190.9061 39.9058 L 190.9173 39.9058 L 206.7512 39.9058 C 207.3443 39.9058 207.6636 40.21 207.6636 40.7691 L 207.6636 47.1313 ZM 190.3978 46.7794 L 207.3203 46.7794 L 207.3203 40.7691 C 207.3203 40.4066 207.1506 40.2553 206.7512 40.2553 L 190.9245 40.2553 C 190.7108 40.2683 190.5587 40.3249 190.4747 40.4212 C 190.4122 40.4964 190.3859 40.6048 190.3978 40.7504 L 190.3978 46.7794 ZM 182.5961 33.2774 L 179.3659 28.7613 L 179.5668 28.6772 C 186.1801 25.7849 191.8905 22.0463 196.5356 17.5634 L 196.5901 17.5197 L 199.4409 17.5197 L 199.4882 17.5594 C 204.6655 21.8465 210.6265 25.4531 217.2133 28.284 L 217.4078 28.3657 L 214.2825 32.8866 L 214.1496 32.8219 C 211.7774 31.6949 209.6485 30.6318 207.8141 29.6666 L 207.8141 33.1819 L 188.8156 33.1819 L 188.8156 30.0776 C 187.0252 31.1375 184.9803 32.1916 182.7274 33.2167 L 182.5961 33.2774 ZM 179.8965 28.9118 L 182.709 32.8437 C 185.0164 31.7903 187.0964 30.7038 188.8988 29.6189 L 189.1597 29.4611 L 189.1597 32.8372 L 207.4731 32.8372 L 207.4731 29.0914 L 207.7261 29.2216 C 209.5748 30.2071 211.7438 31.292 214.164 32.4473 L 216.8788 28.5178 C 210.3632 25.7007 204.4575 22.1175 199.3177 17.8636 L 196.7261 17.8636 C 192.1018 22.3117 186.4449 26.0259 179.8965 28.9118 ZM 206.4079 28.5178 L 190.6147 28.5178 L 191.0621 28.2023 C 193.3215 26.6141 195.6273 24.6061 197.9211 22.2356 L 198.0411 22.1062 L 198.1684 22.2356 C 199.4689 23.5924 201.8195 25.3981 205.1642 27.6092 C 205.3923 27.7379 205.6828 27.9474 206.0189 28.2071 L 206.4079 28.5178 ZM 191.7056 28.1731 L 205.3923 28.1731 C 205.2426 28.0647 205.1074 27.9765 204.9849 27.9086 C 201.7163 25.7452 199.3833 23.9621 198.0411 22.6037 C 195.9266 24.7808 193.7969 26.6513 191.7056 28.1731 ZM 208.8033 18.8482 L 203.3634 18.8482 L 203.3634 16.0958 L 193.1654 16.0958 L 193.1654 18.8482 L 187.7255 18.8482 L 187.7255 16.0958 L 181.0955 16.0958 L 181.0955 11.0822 L 187.7255 11.0822 L 187.7255 8.2392 L 193.1654 8.2392 L 193.1654 11.0822 L 203.3634 11.0822 L 203.3634 8.2392 L 208.8033 8.2392 L 208.8033 11.0822 L 215.7335 11.0822 L 215.7335 16.0958 L 208.8033 16.0958 L 208.8033 18.8482 ZM 203.7075 18.497 L 208.4648 18.497 L 208.4648 15.7463 L 215.3901 15.7463 L 215.3901 11.4325 L 208.4648 11.4325 L 208.4648 8.5871 L 203.7075 8.5871 L 203.7075 11.4325 L 192.8237 11.4325 L 192.8237 8.5871 L 188.0712 8.5871 L 188.0712 11.4325 L 181.4396 11.4325 L 181.4396 15.7463 L 188.0712 15.7463 L 188.0712 18.497 L 192.8237 18.497 L 192.8237 15.7463 L 203.7075 15.7463 L 203.7075 18.497 Z" fill="#ffffff"/>
		</g>
		<g>
			<path d="M 235.8149 42.0943 L 240.3664 44.7908 C 237.9974 48.9832 235.1234 52.3092 231.7563 54.7565 C 230.7671 52.992 229.7603 51.666 228.7358 50.7841 C 231.7739 48.4581 234.131 45.565 235.8149 42.0943 ZM 249.9673 36.8897 L 249.9673 34.1867 L 233.4371 34.1867 L 233.4371 29.5234 L 249.9673 29.5234 L 249.9673 26.7266 L 233.2442 26.7266 C 232.78 26.7266 232.5503 26.4806 232.5503 25.9863 L 232.5503 9.9835 C 232.5847 9.524 232.812 9.295 233.2442 9.295 L 271.543 9.295 C 272.0359 9.3225 272.2833 9.5564 272.2833 9.9835 L 272.2833 25.9863 C 272.2833 26.4806 272.0359 26.7266 271.543 26.7266 L 255.0655 26.7266 L 255.0655 29.5234 L 271.4926 29.5234 L 271.4926 34.1867 L 255.0655 34.1867 L 255.0655 36.8897 L 274.2665 36.8897 L 274.2665 41.7496 L 230.4702 41.7496 L 230.4702 36.8897 L 249.9673 36.8897 ZM 239.378 16.417 L 242.6418 13.9591 L 237.8445 13.9591 C 237.6797 13.9591 237.6132 14.0247 237.6437 14.1541 L 237.6437 21.8133 C 237.6437 21.9452 237.7109 22.0285 237.8445 22.0576 L 243.5334 22.0576 C 241.9831 19.5747 240.5977 17.692 239.378 16.417 ZM 249.9673 22.0576 L 249.9673 13.9591 L 243.7831 13.9591 C 245.1365 15.4348 246.5179 17.3482 247.9369 19.7049 L 244.4258 22.0576 L 249.9673 22.0576 ZM 244.8699 43.0764 L 249.7216 43.6136 C 249.4239 48.425 249.1277 51.8642 248.8268 53.9256 L 244.028 53.0858 C 244.5938 49.8812 244.8699 46.5472 244.8699 43.0764 ZM 255.0655 13.9591 L 255.0655 22.0576 L 260.0652 22.0576 L 257.0455 19.8991 C 258.8263 17.5456 260.1261 15.561 260.9536 13.9591 L 255.0655 13.9591 ZM 255.312 43.9591 L 260.0108 42.6824 C 261.5963 47.1022 262.652 50.488 263.1794 52.8472 L 258.4269 53.8277 C 257.8683 51.2736 256.8303 47.9841 255.312 43.9591 ZM 265.3091 16.2657 C 264.4471 18.0327 263.213 19.9663 261.5963 22.0576 L 266.9418 22.0576 C 267.1058 22.0285 267.1891 21.9452 267.1891 21.8133 L 267.1891 14.1541 C 267.1547 14.0247 267.0731 13.9591 266.9418 13.9591 L 261.5475 13.9591 L 265.3091 16.2657 ZM 265.3091 44.8927 L 269.318 41.9478 C 271.5582 44.4324 273.8696 47.7082 276.2457 51.7647 L 272.088 54.4661 C 269.5821 50.2445 267.3187 47.0536 265.3091 44.8927 Z" fill="#ffffff"/>
			<path d="M 231.7003 55.0138 L 231.6042 54.8447 C 230.6318 53.1053 229.6306 51.7809 228.6254 50.9176 L 228.4613 50.7769 L 228.6374 50.6458 C 231.6331 48.3457 233.9981 45.4453 235.6596 42.0158 L 235.7036 41.9219 L 230.3005 41.9219 L 230.3005 36.7125 L 249.7969 36.7125 L 249.7969 34.3623 L 233.2658 34.3623 L 233.2658 29.3495 L 249.7969 29.3495 L 249.7969 26.8981 L 233.2442 26.8981 C 232.684 26.8981 232.3782 26.5769 232.3782 25.9863 L 232.3782 9.9835 C 232.4166 9.4221 232.7231 9.1211 233.2442 9.1211 L 271.543 9.1211 C 272.3377 9.1721 272.4578 9.6858 272.4578 9.9835 L 272.4578 25.9863 C 272.4578 26.5769 272.1304 26.8981 271.543 26.8981 L 255.2344 26.8981 L 255.2344 29.3495 L 271.6678 29.3495 L 271.6678 34.3623 L 255.2344 34.3623 L 255.2344 36.7125 L 274.4338 36.7125 L 274.4338 41.9219 L 269.5277 41.9219 C 271.7415 44.3968 274.048 47.675 276.3906 51.6773 L 276.4779 51.8221 L 272.0304 54.7088 L 271.9415 54.5542 C 269.4525 50.3642 267.1779 47.1556 265.1818 45.0108 L 265.045 44.8701 L 269.0531 41.9219 L 235.8677 41.9219 L 240.6025 44.7277 L 240.5193 44.8782 C 238.1407 49.0682 235.2274 52.4435 231.858 54.9021 L 231.7003 55.0138 ZM 229.0096 50.7922 C 229.9548 51.6522 230.8984 52.9022 231.814 54.5057 C 235.0369 52.1158 237.835 48.8716 240.1328 44.8587 L 235.8885 42.3378 C 234.2374 45.6775 231.9236 48.5221 229.0096 50.7922 ZM 265.5668 44.9162 C 267.522 47.052 269.7326 50.179 272.14 54.225 L 276.0121 51.7097 C 273.7183 47.8077 271.4565 44.5982 269.2908 42.1792 L 265.5668 44.9162 ZM 230.6439 41.5749 L 274.0929 41.5749 L 274.0929 37.0645 L 254.8934 37.0645 L 254.8934 34.0136 L 271.3181 34.0136 L 271.3181 29.6998 L 254.8934 29.6998 L 254.8934 26.5526 L 271.543 26.5526 C 271.9415 26.5526 272.1104 26.3819 272.1104 25.9863 L 272.1104 9.9835 C 272.1104 9.7473 272.0424 9.5022 271.5317 9.4706 L 233.2442 9.4706 C 232.9033 9.4706 232.7463 9.6267 232.72 9.9949 L 232.72 25.9863 C 232.72 26.3819 232.8776 26.5526 233.2442 26.5526 L 250.1386 26.5526 L 250.1386 29.6998 L 233.6123 29.6998 L 233.6123 34.0136 L 250.1386 34.0136 L 250.1386 37.0645 L 230.6439 37.0645 L 230.6439 41.5749 ZM 248.9709 54.1255 L 243.8271 53.2331 L 243.8615 53.0616 C 244.4146 49.8764 244.7003 46.5205 244.7003 43.0764 L 244.7003 42.8806 L 249.9057 43.4631 L 249.8921 43.6258 C 249.5952 48.425 249.2974 51.8982 248.9997 53.9515 L 248.9709 54.1255 ZM 244.2297 52.9483 L 248.6812 53.7266 C 248.9653 51.6862 249.2542 48.3368 249.5352 43.7706 L 245.0412 43.2706 C 245.03 46.603 244.7595 49.8594 244.2297 52.9483 ZM 258.2981 54.0324 L 258.2621 53.8658 C 257.705 51.3335 256.6566 48.018 255.1495 44.0222 L 255.0839 43.8418 L 260.1213 42.4721 L 260.1749 42.6201 C 261.7524 47.0286 262.8208 50.4548 263.3467 52.8083 L 263.3859 52.9782 L 258.2981 54.0324 ZM 255.5409 44.0772 C 256.9847 47.925 257.998 51.1336 258.5598 53.6239 L 262.9721 52.7088 C 262.4407 50.4055 261.413 47.1087 259.9052 42.8912 L 255.5409 44.0772 ZM 266.9586 22.2356 L 261.2457 22.2356 L 261.4562 21.9532 C 263.0177 19.9355 264.2358 18.0472 265.0858 16.3321 L 261.1665 13.9284 L 261.1081 14.0368 C 260.2933 15.6136 259.0136 17.5707 257.2864 19.8619 L 260.6023 22.2356 L 254.8934 22.2356 L 254.8934 13.7844 L 266.9418 13.7844 C 267.1523 13.7844 267.3043 13.9057 267.3548 14.1096 L 267.3611 14.1541 L 267.3611 21.8133 C 267.3611 21.9193 267.3228 22.166 266.9682 22.2324 L 266.9586 22.2356 ZM 261.9484 21.8861 L 266.9258 21.8861 C 267.0146 21.8651 267.0146 21.8359 267.0146 21.8133 L 267.0146 14.18 C 267.0026 14.1396 266.9842 14.1331 266.9418 14.1331 L 262.1614 14.1331 L 265.5324 16.2026 L 265.462 16.3442 C 264.6384 18.0383 263.4587 19.8991 261.9484 21.8861 ZM 255.2344 21.8861 L 259.521 21.8861 L 256.7991 19.9396 L 256.9047 19.7939 C 258.5774 17.5804 259.8444 15.6784 260.6663 14.1331 L 255.2344 14.1331 L 255.2344 21.8861 ZM 250.1386 22.2356 L 243.8535 22.2356 L 247.7023 19.6532 C 246.3257 17.3789 244.9644 15.5068 243.6542 14.0773 L 243.3861 13.7844 L 250.1386 13.7844 L 250.1386 22.2356 ZM 244.9964 21.8861 L 249.7969 21.8861 L 249.7969 14.1331 L 244.1736 14.1331 C 245.4422 15.5691 246.7604 17.4121 248.0873 19.6135 L 248.1689 19.7543 L 244.9964 21.8861 ZM 243.8495 22.2356 L 237.8005 22.2324 C 237.5941 22.1774 237.478 22.0285 237.478 21.8133 L 237.478 14.1735 C 237.4492 14.0473 237.4876 13.9624 237.5228 13.913 C 237.5876 13.8281 237.6997 13.7844 237.8445 13.7844 L 243.1628 13.7844 L 239.6373 16.4397 C 240.8242 17.7147 242.1848 19.5747 243.6799 21.9678 L 243.8495 22.2356 ZM 237.8661 21.8861 L 243.2205 21.8861 C 241.7462 19.552 240.416 17.7503 239.2571 16.5367 L 239.1195 16.3943 L 242.1216 14.1331 L 237.8445 14.1331 C 237.835 14.1331 237.8229 14.1331 237.8157 14.1331 L 237.8157 14.1541 L 237.8157 21.8133 C 237.8157 21.8545 237.8229 21.8707 237.8661 21.8861 Z" fill="#ffffff"/>
		</g>
		<g>
			<g>
				<g>
					<g>
						<path d="M 85.3065 25.2574 L 84.8743 25.2566 C 84.7791 25.1028 84.6934 24.9702 84.6174 24.8642 C 84.543 24.7533 84.4589 24.6409 84.3717 24.5236 L 84.206 24.5228 L 84.2052 25.0333 C 84.2052 25.0632 84.2116 25.0842 84.2188 25.1061 C 84.2252 25.1263 84.2437 25.1401 84.2709 25.1514 C 84.2813 25.1562 84.3044 25.1603 84.3397 25.1627 C 84.3757 25.1684 84.4021 25.1724 84.4245 25.1773 L 84.4245 25.2525 L 83.749 25.2525 L 83.749 25.1724 C 83.7675 25.1724 83.7922 25.1684 83.8275 25.1627 C 83.8611 25.1595 83.8859 25.1562 83.8987 25.1514 C 83.9235 25.1376 83.9363 25.1263 83.9467 25.1069 C 83.9579 25.0883 83.9627 25.064 83.9627 25.0333 L 83.9651 23.8666 C 83.9675 23.8415 83.9635 23.8165 83.9555 23.7971 C 83.9467 23.7752 83.9299 23.7598 83.9035 23.7493 C 83.8811 23.7437 83.8586 23.7356 83.8315 23.7315 C 83.7994 23.7226 83.7762 23.7226 83.7554 23.7186 L 83.7554 23.6409 L 84.4926 23.6433 C 84.5598 23.6433 84.619 23.6474 84.6814 23.6636 C 84.7391 23.6773 84.7959 23.6992 84.8447 23.7315 C 84.8879 23.7606 84.9263 23.8003 84.9536 23.8488 C 84.9808 23.8966 84.9999 23.9564 84.996 24.0284 C 84.996 24.0883 84.9839 24.1441 84.9695 24.1919 C 84.9471 24.2404 84.9207 24.2809 84.8823 24.3156 C 84.8495 24.3496 84.8087 24.3755 84.7599 24.3974 C 84.7166 24.4208 84.6614 24.4443 84.6038 24.4605 C 84.6814 24.5624 84.7479 24.6546 84.7999 24.7274 C 84.8527 24.7978 84.9151 24.8884 84.9944 24.988 C 85.0248 25.0333 85.0536 25.0697 85.0792 25.0931 C 85.1056 25.1117 85.1312 25.1303 85.1624 25.1449 C 85.1793 25.153 85.2032 25.1627 85.2305 25.1684 C 85.2632 25.1724 85.2865 25.1773 85.3065 25.1789 L 85.3065 25.2574 ZM 84.7166 24.0503 C 84.7166 23.9548 84.6895 23.8796 84.6366 23.8189 C 84.5798 23.7639 84.5013 23.7356 84.3989 23.7356 L 84.2084 23.7323 L 84.206 24.4249 L 84.3549 24.4249 C 84.4589 24.4249 84.5446 24.3925 84.6126 24.3278 C 84.683 24.2606 84.7166 24.1668 84.7166 24.0503 Z" fill="#ffffff"/>
					</g>
					<g>
						<path d="M 84.4485 25.9515 L 84.4437 25.9515 C 84.0475 25.9475 83.6778 25.7921 83.4041 25.5138 C 83.1271 25.2323 82.9735 24.8537 82.9735 24.4556 C 82.9751 23.6385 83.6394 22.971 84.4485 22.971 C 84.8447 22.9726 85.2136 23.128 85.4897 23.4111 C 85.7707 23.6943 85.9211 24.0673 85.9211 24.4653 C 85.9155 25.2849 85.2585 25.9515 84.4485 25.9515 ZM 84.4517 23.2 C 83.761 23.2 83.2016 23.7623 83.1984 24.4556 C 83.1984 24.7962 83.3289 25.1117 83.5626 25.3528 C 83.7955 25.5923 84.11 25.725 84.4437 25.725 L 84.4485 25.8358 L 84.4485 25.725 C 85.1352 25.725 85.6954 25.1562 85.6971 24.4653 C 85.6971 24.1288 85.5666 23.8108 85.3313 23.5689 C 85.0968 23.331 84.7839 23.2 84.4517 23.2 Z" fill="#ffffff"/>
					</g>
				</g>
				<g>
					<g>
						<g>
							<path d="M 15.3682 29.631 C 14.439 28.7265 13.5482 27.8665 12.9251 27.1724 L 12.4297 27.1432 C 13.3157 28.1335 14.2813 29.0833 15.491 30.1545 L 15.3682 29.631 Z" fill="#ffffff"/>
						</g>
						<g>
							<path d="M 11.7114 21.4622 C 12.5325 23.4305 13.7859 25.8641 15.7199 28.5065 L 15.7079 29.0388 C 14.5042 27.3932 12.603 24.5001 11.3228 21.8214 L 11.7114 21.4622 Z" fill="#ffffff"/>
						</g>
						<g>
							<path d="M 13.5358 21.8052 C 13.9888 23.5139 14.7975 25.5187 16.1821 27.6885 L 16.1137 28.1133 C 15.2077 26.6635 13.9324 24.6918 13.1848 21.7947 L 13.5358 21.8052 Z" fill="#ffffff"/>
						</g>
					</g>
					<path d="M 12.8535 25.9604 C 12.7358 25.0899 12.4581 24.3674 12.2349 24.3569 C 12.1244 24.3456 12.048 24.5098 12.0139 24.7808 C 12.0087 24.7566 12.0051 24.7307 11.9967 24.704 C 11.8074 23.8294 11.4773 23.1377 11.2584 23.1498 C 11.1536 23.1611 11.0947 23.331 11.0811 23.6029 C 11.0771 23.5996 11.0771 23.5883 11.0731 23.5794 C 10.8322 22.806 10.4833 22.2162 10.2984 22.2639 C 10.2168 22.2801 10.1719 22.429 10.1804 22.6555 C 10.1667 22.6159 10.1531 22.5803 10.1379 22.5382 C 9.855 21.7801 9.4792 21.2154 9.2976 21.2801 C 9.2015 21.3141 9.1807 21.5196 9.2236 21.8141 C 9.1539 21.6207 9.0579 21.3999 8.9406 21.1766 C 8.6057 20.5463 8.2163 20.1103 8.0726 20.2057 C 8.007 20.2526 8.005 20.3983 8.0507 20.5997 C 7.9878 20.4751 7.9158 20.3457 7.8337 20.2146 C 7.466 19.6281 7.0242 19.2025 6.8497 19.2592 C 6.6769 19.3206 6.8317 19.8417 7.1995 20.425 C 7.3347 20.6418 7.4792 20.8368 7.6188 20.9921 C 7.4124 20.8788 7.2587 20.8384 7.1967 20.8958 C 7.0658 21.0156 7.3912 21.5018 7.9174 21.9864 C 8.1011 22.1555 8.288 22.2995 8.4572 22.416 C 8.1823 22.3019 7.9822 22.2769 7.9278 22.3594 C 7.8181 22.522 8.2695 23.0285 8.9306 23.492 C 8.9622 23.5171 8.9966 23.5398 9.0314 23.56 C 8.8146 23.5001 8.6633 23.5017 8.6249 23.5794 C 8.5353 23.7534 9.0154 24.2404 9.699 24.6635 C 9.7073 24.6651 9.7137 24.6716 9.7202 24.6773 C 9.4589 24.6215 9.2772 24.6409 9.2452 24.738 C 9.1771 24.9491 9.7638 25.4426 10.5509 25.8439 C 10.5753 25.8528 10.5977 25.8666 10.6218 25.8771 C 10.3549 25.8455 10.1783 25.8811 10.1603 25.9895 C 10.1187 26.2145 10.7394 26.661 11.5493 26.9927 C 11.8695 27.1238 12.4669 27.3754 12.7166 27.424 L 12.9791 27.2346 C 12.9916 26.9822 12.9043 26.3067 12.8535 25.9604 ZM 8.3824 21.5601 C 8.3152 21.4953 8.2455 21.4363 8.1735 21.378 C 8.1795 21.378 8.1795 21.378 8.1823 21.378 C 8.2399 21.3586 8.2611 21.2882 8.2484 21.1814 C 8.2999 21.2971 8.3572 21.416 8.4168 21.5325 C 8.4452 21.5746 8.4664 21.6207 8.4876 21.6588 C 8.4572 21.628 8.4168 21.5932 8.3824 21.5601 ZM 9.3176 22.9031 C 9.1927 22.8149 9.0619 22.7348 8.9426 22.6612 C 9.0143 22.6798 9.0743 22.6773 9.1035 22.6482 C 9.1411 22.6142 9.1403 22.5479 9.1075 22.4605 C 9.1827 22.5115 9.2452 22.5333 9.2848 22.505 C 9.3208 22.4799 9.338 22.4249 9.34 22.3497 C 9.3776 22.488 9.4265 22.628 9.4813 22.776 C 9.5281 22.9006 9.5777 23.0228 9.6285 23.1377 C 9.5337 23.0616 9.4265 22.9815 9.3176 22.9031 ZM 10.0943 24.077 C 10.206 24.0964 10.2892 24.0883 10.3228 24.0349 C 10.3768 24.0139 10.4048 23.9435 10.418 23.8229 C 10.5017 24.0867 10.5977 24.3278 10.6938 24.5228 C 10.5313 24.3796 10.3228 24.2275 10.0943 24.077 ZM 10.9835 25.1773 C 11.0435 25.1684 11.0811 25.1514 11.1003 25.1174 C 11.1099 25.1012 11.1124 25.081 11.1124 25.0575 C 11.1312 25.0672 11.1492 25.0697 11.1692 25.0648 C 11.2064 25.0575 11.2344 25.0195 11.25 24.9661 C 11.2913 25.1239 11.3356 25.2752 11.3829 25.4135 C 11.2612 25.3334 11.1276 25.2525 10.9835 25.1773 ZM 11.9724 26.3043 C 11.9927 26.2962 12.0131 26.2776 12.03 26.2533 C 12.058 26.2428 12.0776 26.2266 12.0928 26.2039 C 12.104 26.2654 12.1136 26.3237 12.1276 26.3771 C 12.0776 26.3528 12.0239 26.3277 11.9724 26.3043 Z" fill="#ffffff"/>
					<path d="M 13.2277 20.8295 C 13.1981 20.8424 13.174 20.8497 13.1516 20.8432 C 13.1873 20.8894 13.2217 20.9387 13.2529 20.9848 C 13.2673 20.9314 13.2837 20.8732 13.3033 20.819 C 13.2813 20.8295 13.256 20.8327 13.2277 20.8295 Z" fill="#ffffff"/>
					<path d="M 14.2813 19.2446 C 14.1865 19.1863 14.0436 19.2956 13.8871 19.5156 C 13.8939 19.493 13.9036 19.4695 13.9067 19.4428 C 14.1428 18.5812 14.1729 17.8085 13.9696 17.7236 C 13.8748 17.6783 13.7431 17.8029 13.6046 18.0367 C 13.6086 18.0286 13.6086 18.0197 13.6086 18.014 C 13.7543 17.2171 13.7143 16.5278 13.5294 16.4809 C 13.4446 16.4583 13.3413 16.5699 13.2437 16.7746 C 13.2501 16.7333 13.256 16.6953 13.2589 16.6508 C 13.3597 15.8466 13.2865 15.1695 13.0956 15.1428 C 12.9944 15.1306 12.8815 15.2973 12.7834 15.5764 C 12.8099 15.3742 12.8279 15.1363 12.8275 14.8823 C 12.8223 14.1655 12.6782 13.5951 12.5018 13.6169 C 12.4273 13.6258 12.3569 13.7528 12.3036 13.9551 C 12.3069 13.8151 12.3036 13.6671 12.2892 13.5109 C 12.2372 12.8168 12.0391 12.2327 11.8607 12.2027 C 11.677 12.1712 11.5757 12.7059 11.631 13.3977 C 11.6498 13.6525 11.6942 13.8928 11.7406 14.0967 C 11.6125 13.9049 11.4933 13.7941 11.4133 13.8135 C 11.2436 13.8604 11.304 14.4397 11.5493 15.1161 C 11.6349 15.3523 11.731 15.5724 11.829 15.7512 C 11.639 15.5238 11.4749 15.4041 11.3849 15.4526 C 11.2148 15.5465 11.3796 16.2058 11.7534 16.9275 C 11.7726 16.9663 11.7914 17.0011 11.8102 17.0335 C 11.6486 16.8838 11.5133 16.8126 11.4409 16.862 C 11.2813 16.972 11.4865 17.6273 11.8971 18.3255 C 11.8979 18.3328 11.9043 18.3409 11.9079 18.3474 C 11.697 18.1758 11.5341 18.1038 11.4581 18.1799 C 11.3917 18.2438 11.4177 18.4129 11.4901 18.6208 C 11.4553 18.6855 11.4205 18.7584 11.3889 18.8457 C 11.3889 18.8142 11.3917 18.7786 11.3917 18.7478 C 11.4077 17.671 11.2128 16.7714 10.9555 16.7333 C 10.8298 16.7172 10.7162 16.9049 10.6306 17.2228 C 10.627 17.2131 10.627 17.2026 10.627 17.1953 C 10.5545 16.222 10.314 15.4364 10.0827 15.4413 C 9.9807 15.4462 9.899 15.608 9.8458 15.8782 C 9.8394 15.8288 9.8338 15.7811 9.8234 15.7334 C 9.7045 14.7617 9.4221 14.0028 9.1935 14.0368 C 9.0743 14.049 8.9938 14.2852 8.9622 14.6436 C 8.9374 14.3993 8.8822 14.1169 8.8062 13.824 C 8.5917 12.9931 8.2584 12.3839 8.0667 12.4616 C 7.9786 12.4964 7.9374 12.6687 7.9374 12.9171 C 7.8998 12.7601 7.851 12.5886 7.7902 12.409 C 7.5228 11.6259 7.1271 11.0126 6.9102 11.0385 C 6.6937 11.0636 6.7305 11.7189 6.9982 12.4988 C 7.0978 12.7868 7.2147 13.0506 7.3307 13.2723 C 7.1271 13.0927 6.957 13.0021 6.8726 13.0555 C 6.6896 13.1606 6.9322 13.8135 7.4124 14.5174 C 7.5797 14.7649 7.7553 14.9826 7.9202 15.163 C 7.6341 14.9607 7.4095 14.875 7.3223 14.964 C 7.1563 15.129 7.5376 15.8369 8.1795 16.5473 C 8.2107 16.5853 8.2427 16.6225 8.2736 16.6524 C 8.0443 16.5311 7.869 16.4922 7.8013 16.5772 C 7.6521 16.7576 8.0767 17.4542 8.7526 18.1225 C 8.7617 18.1305 8.7678 18.1346 8.7726 18.1419 C 8.4812 18.014 8.2711 17.9865 8.2015 18.0982 C 8.0726 18.332 8.6137 19.0626 9.4221 19.7268 C 9.4428 19.7454 9.47 19.7656 9.4921 19.7875 C 9.1927 19.6815 8.9822 19.679 8.9282 19.8028 C 8.819 20.0552 9.4176 20.7413 10.2608 21.3335 C 10.5977 21.5673 11.2192 22.0147 11.4953 22.1385 L 11.8487 21.9816 C 11.9191 21.7251 11.9863 21.1038 12.0251 20.6604 C 12.1496 20.8538 12.2913 21.0536 12.4605 21.2542 C 12.6834 21.522 13.0956 22.0261 13.2933 22.1911 L 13.6146 22.1466 C 13.7431 21.9266 13.976 21.2882 14.092 20.9597 C 14.3873 20.1305 14.4722 19.3651 14.2813 19.2446 ZM 8.0635 14.1355 C 8.0006 14.0433 7.9374 13.9535 7.8702 13.8669 C 7.8749 13.8701 7.8762 13.871 7.8802 13.8685 C 7.9494 13.8604 7.9954 13.7844 8.0103 13.6525 C 8.0378 13.8038 8.0726 13.9535 8.1139 14.1096 C 8.1279 14.1655 8.1403 14.2213 8.1579 14.2779 C 8.1279 14.2326 8.0955 14.1841 8.0635 14.1355 ZM 8.7834 15.9526 C 8.6573 15.8159 8.5353 15.6913 8.4156 15.5724 C 8.4932 15.612 8.5569 15.6233 8.6017 15.5958 C 8.6557 15.5659 8.6717 15.4874 8.6573 15.3782 C 8.7305 15.4623 8.7961 15.4971 8.8522 15.4753 C 8.9002 15.4526 8.9338 15.3952 8.9558 15.3078 C 8.9658 15.4761 8.9778 15.6557 9.0046 15.8418 C 9.0242 16.006 9.0475 16.1581 9.0791 16.307 C 8.9846 16.1889 8.8882 16.0723 8.7834 15.9526 ZM 9.364 17.531 C 9.488 17.5844 9.5841 17.5893 9.6365 17.5416 C 9.7045 17.5335 9.7638 17.4493 9.801 17.3142 C 9.8298 17.6435 9.877 17.9526 9.9382 18.2082 C 9.7858 17.9938 9.5881 17.7641 9.364 17.531 ZM 10.0983 19.0537 C 10.1667 19.0626 10.2168 19.0488 10.2496 19.01 C 10.2636 18.9938 10.27 18.9736 10.2736 18.9444 C 10.292 18.9606 10.3172 18.9671 10.3364 18.9647 C 10.3832 18.9647 10.4277 18.9291 10.4621 18.8708 C 10.4661 19.0674 10.4765 19.2543 10.4929 19.4307 C 10.374 19.3036 10.2412 19.1782 10.0983 19.0537 ZM 11.0939 20.7518 C 11.0435 20.7146 10.9895 20.6693 10.9331 20.628 C 10.9611 20.6216 10.9879 20.6086 11.0155 20.5819 C 11.0507 20.5763 11.0771 20.5674 11.1003 20.5463 C 11.098 20.6191 11.0939 20.6903 11.0939 20.7518 ZM 12.058 14.7043 C 12.1244 14.714 12.1712 14.6606 12.2141 14.5635 C 12.2044 14.6832 12.1996 14.8167 12.2028 14.9502 C 12.2028 15.0012 12.2028 15.0505 12.2044 15.0958 C 12.1908 15.0513 12.1748 15.0069 12.156 14.9607 C 12.1252 14.8726 12.0928 14.7844 12.0552 14.7018 C 12.058 14.7018 12.058 14.7043 12.058 14.7043 ZM 12.0776 19.7947 C 12.0776 19.7705 12.0776 19.747 12.0776 19.7243 C 12.088 19.7405 12.0952 19.7551 12.106 19.7705 C 12.1244 19.7907 12.1372 19.8142 12.1532 19.8376 C 12.1244 19.8142 12.106 19.8117 12.0776 19.7947 ZM 12.3661 16.5885 C 12.2941 16.451 12.222 16.3167 12.1448 16.2002 C 12.2028 16.2495 12.2548 16.2706 12.2941 16.2617 C 12.3445 16.2495 12.3729 16.1889 12.3837 16.0982 C 12.4273 16.1816 12.4733 16.2269 12.5206 16.2204 C 12.5646 16.2131 12.605 16.1751 12.6394 16.1096 C 12.613 16.2455 12.587 16.3952 12.5677 16.5513 C 12.5518 16.6864 12.5389 16.8167 12.5325 16.9413 C 12.4846 16.828 12.4273 16.7099 12.3661 16.5885 ZM 12.7346 18.065 C 12.7906 18.0707 12.8535 18.0197 12.9151 17.9186 C 12.8695 18.192 12.8439 18.4493 12.8431 18.671 C 12.7623 18.4663 12.6502 18.2317 12.5145 17.993 C 12.605 18.0634 12.6806 18.0933 12.7346 18.065 ZM 13.04 19.7842 C 12.9675 19.6532 12.8867 19.5221 12.795 19.3837 C 12.8499 19.408 12.8915 19.4088 12.9283 19.387 C 12.9435 19.374 12.9539 19.3587 12.9608 19.3409 C 12.9764 19.357 12.9916 19.3651 13.0107 19.3716 C 13.0468 19.3821 13.0896 19.3651 13.13 19.3231 C 13.0924 19.4824 13.0644 19.6378 13.04 19.7842 Z" fill="#ffffff"/>
					<g>
						<g>
							<path d="M 1.0541 17.1524 C 2.381 18.891 5.8761 22.8853 8.9186 25.3294 C 6.2975 22.8027 3.1385 19.2349 1.3594 16.5384 L 1.0541 17.1524 Z" fill="#ffffff"/>
						</g>
						<g>
							<path d="M 0 13.4171 C 1.1961 15.2504 4.3923 19.4962 7.2495 22.1555 C 4.8201 19.4436 1.928 15.65 0.3461 12.8289 L 0 13.4171 Z" fill="#ffffff"/>
						</g>
						<g>
							<path d="M 0.8024 10.5094 C 1.6907 12.5158 4.157 17.2301 6.5452 20.3279 C 4.5868 17.2479 2.3454 13.0296 1.2457 9.9876 L 0.8024 10.5094 Z" fill="#ffffff"/>
						</g>
						<g>
							<path d="M 1.6455 8.2036 C 2.381 10.2724 4.4923 15.1606 6.6489 18.4307 C 4.9209 15.2107 2.9973 10.8338 2.1197 7.7166 L 1.6455 8.2036 Z" fill="#ffffff"/>
						</g>
						<g>
							<path d="M 0.5386 7.9593 C 1.7427 9.9188 4.9785 14.5724 7.9098 17.7268 C 5.4291 14.6436 2.4995 10.4754 0.9236 7.5378 L 0.5386 7.9593 Z" fill="#ffffff"/>
						</g>
						<g>
							<path d="M 0.3001 4.0954 C 1.2874 6.126 4.0197 10.9892 6.6176 14.3661 C 4.4699 11.1073 1.9921 6.7458 0.7431 3.7208 L 0.3001 4.0954 Z" fill="#ffffff"/>
						</g>
						<g>
							<path d="M 1.5378 1.9012 C 2.1757 3.9619 4.0873 8.9528 6.1398 12.528 C 4.5311 9.1332 2.7884 4.6552 2.0661 1.6189 L 1.5378 1.9012 Z" fill="#ffffff"/>
						</g>
						<g>
							<path d="M 2.7328 0.2403 C 3.2054 2.2969 4.7248 7.3024 6.5104 10.9358 C 5.1622 7.5079 3.7728 3.0129 3.295 0 L 2.7328 0.2403 Z" fill="#ffffff"/>
						</g>
						<g>
							<path d="M 5.6344 2.2564 C 5.9894 4.3049 7.2239 9.3072 8.8177 12.9632 C 7.6581 9.5297 6.5168 5.0387 6.2151 2.0485 L 5.6344 2.2564 Z" fill="#ffffff"/>
						</g>
						<g>
							<path d="M 8.6137 5.3049 C 8.713 7.3129 9.322 12.2496 10.4745 15.9356 C 9.7322 12.511 9.1539 8.0758 9.2391 5.1714 L 8.6137 5.3049 Z" fill="#ffffff"/>
						</g>
						<g>
							<path d="M 15.431 5.6131 C 14.9568 7.7587 14.1608 13.032 14.2541 16.9607 C 14.4942 13.3038 15.1833 8.5645 16.0905 5.4594 L 15.431 5.6131 Z" fill="#ffffff"/>
						</g>
						<g>
							<path d="M 7.6849 5.084 C 8.0767 7.2482 9.3776 12.4179 10.9779 15.9947 C 9.7902 12.5369 8.5984 7.9027 8.2347 4.677 L 7.6849 5.084 Z" fill="#ffffff"/>
						</g>
						<g>
							<path d="M 9.4993 2.1642 C 9.5381 4.3591 9.9839 9.6745 10.9835 13.4721 C 10.3704 9.8622 9.9431 5.0945 10.1051 1.8567 L 9.4993 2.1642 Z" fill="#ffffff"/>
						</g>
						<g>
							<path d="M 13.3157 2.3713 C 13.04 4.5565 12.7294 9.8784 13.1804 13.7803 C 13.0864 10.1178 13.3357 5.338 13.9572 2.1553 L 13.3157 2.3713 Z" fill="#ffffff"/>
						</g>
						<g>
							<path d="M 11.1652 0.377 C 11.0435 2.5695 11.0939 7.9051 11.8118 11.7666 C 11.4673 8.1179 11.3917 3.3292 11.7914 0.1157 L 11.1652 0.377 Z" fill="#ffffff"/>
						</g>
					</g>
					<g>
						<g>
							<path d="M 16.0125 31.6989 C 16.9561 32.1795 20.2795 32.3915 21.5384 32.0096 C 20.5516 32.7571 18.0325 33.1803 17.0653 33.1981 C 16.8672 32.8146 16.5079 32.0622 16.0125 31.6989 Z" fill="#ffffff"/>
						</g>
						<g>
							<path d="M 18.3006 33.9998 C 18.6371 33.4327 20.8845 32.5306 22.0094 32.4206 C 21.0894 32.919 19.5552 34.1827 19.1062 34.6365 C 18.8825 34.41 18.6576 34.067 18.3006 33.9998 Z" fill="#ffffff"/>
						</g>
						<g>
							<path d="M 19.6008 34.8914 C 19.6008 34.6616 19.6917 34.1398 19.8977 33.8429 C 20.2999 34.0492 21.0374 34.5977 21.1955 35.075 C 20.6788 35.2118 20.0046 34.9812 19.6008 34.8914 Z" fill="#ffffff"/>
						</g>
						<g>
							<path d="M 18.2198 34.7741 C 17.4283 36.3614 16.7247 39.0207 17.5503 41.5417 C 18.3782 42.2504 20.3099 42.6622 22.0402 42.2334 C 22.0418 40.5328 19.9673 36.4601 18.5099 35.092 C 19.2038 36.6397 20.4299 40.0482 20.5636 41.252 C 20.877 41.4098 21.2819 41.6193 21.7505 42.032 C 20.2014 41.8661 16.7868 41.4948 18.2198 34.7741 Z" fill="#ffffff"/>
						</g>
						<g>
							<path d="M 21.3547 34.5297 C 22.8614 33.3081 24.5493 32.1754 27.3821 32.1415 C 27.8747 32.5031 28.6174 32.7118 29.1121 32.7337 C 29.0836 33.9165 28.9684 35.5079 27.8435 36.4091 C 26.6966 35.7732 23.7582 34.5564 22.0054 34.6899 C 23.7385 34.1519 26.3204 34.6115 28.114 35.5241 C 28.0916 34.7773 28.0292 34.0031 27.7619 33.4141 C 28.0536 33.2782 28.6174 33.1633 28.9059 33.029 C 27.7411 32.7733 23.8078 32.9918 21.3547 34.5297 Z" fill="#ffffff"/>
						</g>
						<g>
							<path d="M 21.6833 37.3719 C 22.7141 38.3492 23.7665 40.083 24.8166 42.2617 C 25.6766 44.0537 27.3693 45.7236 29.8368 46.6346 L 28.2197 46.8376 C 26.4449 46.332 24.5873 44.1945 23.9598 42.7383 C 22.9786 40.4576 22.3307 38.3775 21.6833 37.3719 Z" fill="#ffffff"/>
						</g>
						<g>
							<path d="M 22.0034 35.2587 C 23.1699 36.1915 25.214 37.9123 29.3902 37.7109 C 33.7736 37.4973 38.2715 35.6907 42.0768 41.2658 L 40.7734 41.2844 C 39.5865 39.3735 35.482 36.9989 31.5459 37.8986 C 28.1389 38.672 24.2588 39.0021 22.0034 35.2587 Z" fill="#ffffff"/>
						</g>
					</g>
					<g>
						<g>
							<path d="M 14.994 28.5582 C 15.8019 29.6537 17.0249 31.22 17.7648 32.0209 C 16.8336 31.0339 15.6935 29.9506 14.6786 28.9563 L 14.994 28.5582 Z" fill="#ffffff"/>
						</g>
						<g>
							<path d="M 15.2601 27.8625 C 16.1389 29.1189 17.1774 30.4384 18.3951 31.7725 C 17.5931 30.6536 16.2866 28.8196 15.4934 27.5664 L 15.2601 27.8625 Z" fill="#ffffff"/>
						</g>
						<g>
							<path d="M 15.7155 26.9256 C 16.6311 28.4862 17.8392 30.1407 19.4295 31.8454 C 18.2726 30.2766 16.7396 28.178 15.95 26.5971 L 15.7155 26.9256 Z" fill="#ffffff"/>
						</g>
						<g>
							<path d="M 20.9174 35.808 C 21.9694 36.8582 26.182 41.8394 27.8615 44.4599 L 28.7147 44.5497 C 27.4157 42.3014 22.8238 37.5183 20.9174 35.808 Z" fill="#ffffff"/>
						</g>
						<g>
							<path d="M 21.7069 36.1899 C 24.2184 39.0587 29.533 43.5238 32.4911 45.6031 L 34.0422 45.5367 C 30.8584 43.9146 24.6689 39.0587 21.7069 36.1899 Z" fill="#ffffff"/>
						</g>
						<g>
							<path d="M 22.2924 36.3727 C 25.1631 39.1979 31.5779 42.5764 35.9114 44.6096 L 37.0579 44.4566 C 34.7025 43.4251 26.106 39.1089 22.2924 36.3727 Z" fill="#ffffff"/>
						</g>
					</g>
				</g>
				<g>
					<g>
						<g>
							<path d="M 49.8654 26.8576 C 49.9285 26.8196 50.0082 26.7492 50.1006 26.6505 L 50.2603 26.5907 C 50.4708 26.2719 50.6573 26.085 50.8165 26.0357 L 51.0731 25.8439 C 51.1166 25.8051 51.1759 25.7654 51.2547 25.7307 C 51.3328 25.7015 51.462 25.5988 51.6381 25.424 C 51.811 25.2485 51.955 25.1627 52.0579 25.1627 C 52.1635 25.1627 52.2484 25.1724 52.3132 25.1926 C 52.376 25.0697 52.5052 24.9443 52.6945 24.8221 C 52.887 24.6999 53.0423 24.5567 53.1567 24.3844 L 53.3632 24.2897 C 53.5345 24.208 53.6849 24.098 53.819 23.9686 C 53.9531 23.8335 54.1235 23.7679 54.3364 23.7687 C 54.6406 23.7687 54.9603 23.9281 55.2905 24.2428 C 55.6226 24.5583 55.7867 24.8561 55.7859 25.1449 L 55.5134 26.3892 C 55.334 27.3042 55.132 27.7824 54.9095 27.8244 L 54.847 28.1602 C 54.7022 28.2637 54.6277 28.3487 54.6277 28.4118 L 54.7186 28.7969 C 54.715 28.8527 54.6646 28.9304 54.5453 29.0364 C 54.5233 29.0364 54.5137 29.0663 54.5137 29.1294 L 54.5137 29.7855 C 54.5109 29.902 54.4357 29.9959 54.2896 30.0719 C 54.3096 30.0962 54.3428 30.1164 54.3824 30.1383 C 54.4477 30.0719 54.5901 30.0388 54.8087 30.0388 L 55.0576 30.0719 L 55.4033 29.7265 C 55.4729 29.7038 55.5757 29.6537 55.7075 29.5736 C 55.8379 29.4967 56.0608 29.3932 56.3729 29.267 L 58.4182 27.6804 C 58.7011 27.394 58.9144 27.25 59.0585 27.25 C 59.2161 27.2516 59.2917 27.356 59.2917 27.5534 C 59.2917 27.7913 59.2441 27.983 59.1561 28.1343 C 59.0688 28.2896 58.9848 28.4798 58.9076 28.6942 C 58.8376 28.9126 58.7527 29.0631 58.6507 29.1488 C 58.5502 29.233 58.4714 29.3301 58.4042 29.4288 C 58.3453 29.5258 58.1721 29.6731 57.8936 29.8656 C 57.6166 30.0566 57.3793 30.2507 57.1852 30.4433 C 56.9904 30.6383 56.8295 30.7823 56.7047 30.8632 L 56.0276 31.3583 L 55.9339 31.5177 C 55.9135 31.5387 55.8175 31.5832 55.6426 31.6504 C 55.4666 31.7208 55.3124 31.8073 55.1804 31.9117 L 54.8959 32.0743 C 54.8326 32.1132 54.7278 32.1415 54.5901 32.1512 C 54.4477 32.1617 54.3217 32.2207 54.2176 32.3308 C 54.1107 32.4457 54.0275 32.4991 53.9667 32.4991 L 53.7318 32.4635 L 53.4149 32.5614 C 53.2388 32.5581 53.0211 32.4513 52.7666 32.2305 C 52.5096 32.012 52.38 31.7782 52.38 31.5355 L 52.3828 31.4392 L 52.4144 31.2127 C 52.4144 31.1739 52.3828 31.0646 52.3164 30.8891 C 52.2556 30.7087 52.226 30.6132 52.226 30.5889 L 52.2556 30.3664 L 52.226 30.2726 C 52.226 29.9854 52.2484 29.8025 52.2928 29.7305 C 52.3324 29.6512 52.364 29.5517 52.3868 29.4182 C 52.4044 29.2823 52.428 29.1739 52.4489 29.0914 L 52.5301 28.6901 C 52.5721 28.5639 52.6245 28.4781 52.6881 28.4353 C 52.7125 28.3511 52.7538 28.2071 52.813 28.004 L 52.8814 27.7168 L 53.0383 27.4944 C 53.1215 27.407 53.1755 27.2937 53.1868 27.1529 C 53.2032 27.0049 53.2596 26.8552 53.3528 26.6934 C 53.4496 26.5356 53.4953 26.4394 53.4953 26.4038 C 53.4953 26.28 53.436 26.2145 53.31 26.2145 C 53.268 26.2145 53.1367 26.3002 52.913 26.4685 L 52.6313 26.373 C 52.6089 26.373 52.5501 26.4264 52.4545 26.5316 C 52.4545 26.572 52.4044 26.6052 52.3108 26.6271 C 52.2199 26.6457 52.1295 26.7266 52.0406 26.8625 L 51.9178 26.8932 L 51.7097 26.7994 L 51.6489 26.7994 C 51.5436 26.7994 51.4812 26.9151 51.456 27.1497 C 51.3376 27.318 51.1835 27.4264 50.9954 27.4814 L 50.6476 27.5753 C 50.5304 27.6189 50.4444 27.7144 50.3923 27.8625 C 50.3488 27.9862 50.0682 28.0566 50.0322 28.157 C 49.9946 28.2573 50.0322 28.161 50.0322 28.165 C 50.0322 28.1699 50.0322 28.1764 50.0322 28.178 C 50.0366 28.1845 50.035 28.1893 50.0374 28.1917 C 50.4272 27.6885 50.4628 27.7168 50.0762 28.267 C 49.4247 28.7937 49.8934 28.161 49.7597 28.4498 C 49.6276 28.7387 49.1519 28.8026 48.9109 28.9369 C 48.2278 29.5024 48.2451 29.6755 47.7661 29.6941 C 47.287 29.7038 48.6996 28.0227 48.4379 28.6869 C 48.5295 28.6019 48.6276 28.5218 48.7224 28.4409 C 48.9501 28.2492 48.7712 27.9531 49.3183 27.9571 C 49.3183 27.9571 49.3687 27.5793 49.3687 27.5356 C 49.3687 27.4944 49.8889 27.0631 49.8345 26.9256 L 49.8345 26.9256 " fill="#ffffff"/>
						</g>
						<g>
							<path d="M 63.8185 18.2835 L 64.0386 18.2212 L 64.1954 18.0593 L 64.2299 18.0593 L 64.3687 18.1257 L 64.4039 18.1265 C 64.6537 18.1265 64.877 18.0755 65.0754 17.9768 C 65.2731 17.8773 65.4372 17.8053 65.5684 17.7616 C 65.7037 17.722 65.7845 17.6904 65.8141 17.6662 C 65.8453 17.6459 65.8766 17.6378 65.8974 17.6378 L 66.1487 17.6662 C 66.236 17.6662 66.348 17.5181 66.4896 17.2171 C 66.6329 16.9146 66.7946 16.6929 66.9714 16.5562 C 67.1491 16.4178 67.3308 16.1581 67.5085 15.7779 C 67.5525 15.722 67.5973 15.6395 67.6525 15.5287 C 67.7062 15.4195 67.7454 15.3636 67.7774 15.3636 C 67.9335 15.3636 68.0599 15.2625 68.1592 15.0611 C 68.4721 14.6897 68.7306 14.5036 68.9307 14.5036 C 69.19 14.5077 69.3685 14.7617 69.4765 15.269 L 69.6326 15.8782 C 69.6326 15.8879 69.6053 15.9656 69.5549 16.1104 C 69.5005 16.2536 69.4757 16.3952 69.4805 16.5408 C 69.4885 16.684 69.4805 16.7762 69.4637 16.8256 C 69.4469 16.8741 69.4421 16.9299 69.4421 16.9922 C 69.4421 17.0772 69.5294 17.1209 69.7102 17.1209 C 69.767 17.1209 69.8839 17.0772 70.0544 16.9922 L 70.1512 16.9631 C 70.256 17.027 70.3449 17.0586 70.4177 17.0594 C 70.437 17.0594 70.5882 17.0068 70.8707 16.9016 C 71.1492 16.7948 71.3237 16.7382 71.3981 16.7269 C 71.4718 16.7172 71.5966 16.6743 71.7767 16.6031 L 71.968 16.6031 L 72.0936 16.6508 C 72.1345 16.6508 72.2193 16.6063 72.3522 16.5157 C 72.4842 16.4235 72.7339 16.3725 73.1028 16.3515 L 73.319 16.2552 L 73.3854 16.2552 C 73.7311 16.2576 73.9048 16.413 73.9048 16.7188 C 73.9048 16.7819 73.8512 16.8919 73.7535 17.0553 C 73.6519 17.2131 73.5719 17.3919 73.5079 17.5942 L 72.7819 18.5165 C 72.537 18.8352 72.2913 18.9938 72.0528 18.9922 C 72.016 18.9922 71.8807 18.8498 71.6599 18.5618 C 71.6599 18.5383 71.6382 18.5294 71.5966 18.5286 C 71.4934 18.5286 71.3798 18.5496 71.2645 18.5941 C 71.1508 18.6313 71.0532 18.6572 70.982 18.6556 C 70.9492 18.6556 70.6682 18.7317 70.1472 18.8927 L 69.7654 18.9541 C 69.7238 18.9541 69.623 18.976 69.4661 19.0181 L 68.665 19.1774 C 68.3865 19.3125 68.1703 19.5731 68.0151 19.9517 C 68.0151 19.9743 67.9599 20.0221 67.8502 20.0981 L 67.1403 21.3999 C 66.909 21.4622 66.7521 21.6013 66.6801 21.8117 L 66.6153 21.9079 C 66.5024 21.9298 66.3952 21.9977 66.3 22.1086 C 66.2063 22.2178 66.1167 22.3068 66.0334 22.3691 L 65.7469 22.8003 C 65.6317 22.9451 65.5125 23.1086 65.3979 23.2841 C 65.2835 23.4581 65.1987 23.645 65.1435 23.8399 C 65.0906 24.0349 65.0482 24.1514 65.0146 24.183 C 64.9842 24.2178 64.9706 24.2752 64.9714 24.3569 L 64.9225 24.4864 C 64.7945 24.615 64.7289 24.7566 64.7289 24.9135 L 64.7945 25.1684 C 64.6448 25.6789 64.572 25.9515 64.572 25.979 C 64.572 26.0033 64.5816 26.0624 64.6032 26.1578 L 64.6032 26.2533 C 64.6016 26.4871 64.5152 26.7792 64.3463 27.1287 L 64.3751 27.3859 L 64.2799 28.0987 C 64.2799 28.1958 64.3103 28.3713 64.3727 28.6286 C 64.3303 28.6691 64.3103 28.6998 64.3103 28.7241 C 64.3087 29.021 64.4624 29.3495 64.7729 29.7038 C 65.0826 30.0614 71.2205 27.4054 65.1851 31.6471 C 64.488 33.4642 65.1315 31.9052 65.1227 32.0492 C 65.1107 32.1892 65.0266 32.3308 64.877 32.4724 C 64.7241 32.6059 64.9562 32.5581 64.4888 32.6746 C 64.0218 32.7919 63.5168 32.2612 63.2422 31.4449 C 62.9741 30.6245 62.8381 30.0978 62.8389 29.8656 L 62.8721 29.2427 L 62.7776 28.9239 L 62.8737 27.5235 L 62.8181 27.1877 L 63.1826 25.8188 L 63.1842 25.3237 C 63.1842 25.3002 63.2579 25.2161 63.4027 25.0672 C 63.4027 25.0486 63.3839 25.0333 63.3419 25.0333 C 63.277 25.0333 63.1946 25.1004 63.0882 25.2242 C 62.9846 25.3544 62.8533 25.4774 62.6928 25.5931 L 62.5671 25.8148 C 62.5463 25.7921 62.5027 25.7727 62.4403 25.7501 C 62.3879 25.7727 62.2126 26.0219 61.9165 26.4976 C 61.696 26.53 61.5203 26.6562 61.3943 26.8819 C 61.2718 27.102 61.0961 27.2144 60.8748 27.212 L 60.8088 27.2476 C 60.7652 27.5534 60.6212 27.7071 60.3694 27.7047 L 60.3038 27.7354 C 60.1453 28.0987 59.9816 28.2743 59.814 28.2621 C 59.7056 28.5817 59.4494 28.7985 59.0389 28.9126 C 58.9752 29.0388 58.8852 29.1367 58.7631 29.199 C 58.6411 29.2613 58.5546 29.3195 58.5038 29.3729 C 58.4482 29.4288 58.4018 29.4547 58.3597 29.4547 C 58.2209 29.4506 58.1533 29.305 58.1533 29.0097 C 58.1533 28.9207 58.1917 28.8276 58.2614 28.7298 C 58.3298 28.6286 58.3614 28.5566 58.3642 28.5129 C 58.3642 28.4919 58.3074 28.4304 58.2045 28.3196 C 58.2045 27.9951 58.2885 27.7872 58.4582 27.7031 C 58.6275 27.6189 58.7543 27.4944 58.8376 27.3366 C 58.8924 27.2096 58.9937 27.1198 59.1537 27.0672 C 59.3138 27.0105 59.393 26.945 59.393 26.8576 C 59.393 26.7848 59.5279 26.6392 59.8008 26.4167 C 60.0761 26.191 60.275 25.9976 60.4042 25.8342 C 60.5327 25.6684 60.6375 25.5874 60.7188 25.5874 L 60.7848 25.5252 C 60.8072 25.2614 60.9077 25.1295 61.0833 25.1263 L 61.2426 25.0324 L 61.2754 24.9062 L 61.3694 24.8415 L 61.4955 24.8415 L 61.5731 24.7768 C 61.5959 24.5139 61.722 24.3051 61.9473 24.1587 C 62.1746 24.0123 62.5884 23.5932 63.189 22.9095 C 63.7893 22.2283 64.1278 21.789 64.201 21.5981 C 64.2751 21.4072 64.4128 21.1483 64.6072 20.8254 C 64.8001 20.5035 64.9122 20.1993 64.9297 19.9129 C 64.9153 19.87 64.8785 19.8271 64.8369 19.7842 L 64.1575 20.1151 C 64.1575 20.086 64.0558 20.0366 63.8433 19.9695 C 63.6848 20.0674 63.5692 20.1637 63.4936 20.2591 C 63.4219 20.3562 63.3627 20.4007 63.3215 20.4007 L 63.101 20.3683 L 62.4067 20.4484 C 61.788 20.4994 61.3154 20.624 61.0033 20.8246 C 61.0033 20.8246 61.6027 20.6564 60.2126 21.014 C 58.822 21.3724 60.7024 18.9291 61.3943 18.8037 C 61.5255 18.7203 61.7252 18.6572 61.9933 18.6208 C 62.2618 18.5844 62.4503 18.5423 62.5544 18.5043 L 62.8088 18.4396 C 62.8497 18.4396 62.9337 18.4048 63.0677 18.3263 C 63.1978 18.2584 63.3683 18.2187 63.582 18.2195 C 63.6136 18.2195 63.6909 18.2398 63.8185 18.2835 Z" fill="#ffffff"/>
						</g>
						<g>
							<path d="M 80.1403 28.61 L 80.3924 28.39 C 80.5469 28.39 80.6389 28.3196 80.6725 28.1764 C 80.7069 28.0316 80.8174 27.9167 81.0103 27.8333 C 81.2056 27.7516 81.3808 27.5761 81.5513 27.318 C 81.7153 27.0583 81.8922 26.9305 82.0715 26.9313 C 82.1299 26.9313 82.2036 26.983 82.2876 27.0915 C 82.3701 27.1958 82.41 27.2816 82.41 27.3439 C 82.41 27.695 82.3036 28.0566 82.0955 28.4264 L 82.0283 28.8713 L 81.9194 29.0833 C 81.7634 29.1642 81.6617 29.2556 81.6153 29.3535 C 81.5681 29.4466 81.4456 29.5631 81.2455 29.6998 L 81.0847 29.9223 C 80.8566 29.9959 80.6997 30.1189 80.6245 30.2888 C 80.5421 30.4595 80.4356 30.5525 80.2932 30.5744 C 80.1531 30.5938 79.9995 30.6981 79.8298 30.8923 C 79.7241 30.9433 79.6008 30.9918 79.452 31.0339 L 79.4208 31.19 C 79.3151 31.3001 79.147 31.385 78.923 31.4457 C 78.6981 31.5088 78.5356 31.5695 78.4244 31.6237 C 78.3131 31.686 78.2371 31.7143 78.1946 31.7143 C 77.9969 31.7143 77.8137 31.6747 77.6416 31.5946 C 77.4824 31.5128 77.3071 31.4627 77.1294 31.4392 C 77.0662 31.3761 77.0278 31.3065 77.0222 31.2329 C 77.0093 31.1585 76.9605 31.0606 76.8653 30.9384 C 76.7708 30.8155 76.7244 30.6464 76.726 30.4376 L 76.79 30.131 C 76.79 30.0881 76.7636 30.0355 76.7116 29.9708 C 76.6612 29.9101 76.6324 29.8543 76.6324 29.8147 C 76.6324 29.7669 76.6444 29.7378 76.6644 29.72 C 76.6844 29.6941 76.6948 29.6642 76.6948 29.6237 C 76.6948 29.5663 76.686 29.5097 76.6644 29.4466 C 76.6444 29.381 76.6324 29.3301 76.6324 29.2864 L 76.7332 28.5 C 76.7332 28.4409 76.7116 28.4053 76.6668 28.4053 C 76.6276 28.4053 76.5483 28.4612 76.4371 28.5663 C 76.3267 28.6731 76.1994 28.7241 76.0545 28.7241 C 75.9665 28.7904 75.8993 28.9207 75.8441 29.1229 C 75.7608 29.2289 75.6544 29.3236 75.5295 29.4077 L 75.4655 29.504 C 75.4438 29.5776 75.3654 29.6367 75.2294 29.6852 C 75.0933 29.7378 74.9965 29.7969 74.9429 29.8697 L 74.7836 30.0307 L 74.4858 29.9959 C 74.4642 30.0177 74.4066 30.1067 74.3138 30.2726 C 74.2186 30.4384 74.0961 30.5719 73.9489 30.6787 L 72.7475 31.6641 C 72.6202 31.7507 72.4362 31.8534 72.1921 31.9829 L 72.0977 32.0751 C 71.2549 32.6366 70.6594 32.9157 70.3129 32.9157 C 70.0303 32.9157 69.6958 32.8308 69.3157 32.6762 C 68.9403 32.5152 68.7354 32.3235 68.7066 32.0978 L 68.5497 31.4449 C 68.4553 31.2968 68.4097 31.0897 68.4097 30.8235 C 68.4097 30.6981 68.4193 30.6132 68.4401 30.5695 L 68.4401 30.474 L 68.4137 29.9482 C 68.4137 29.8179 68.5089 29.7564 68.7114 29.7572 L 68.681 29.3268 C 68.681 29.2864 68.7746 29.1189 68.9571 28.8268 C 69.1452 28.5356 69.2684 28.3673 69.3293 28.3252 L 69.4885 28.1165 C 69.4805 27.9951 69.5557 27.8552 69.7102 27.7112 C 69.8703 27.5736 69.9935 27.424 70.0888 27.2759 C 70.1856 27.1287 70.3697 26.9612 70.629 26.784 L 71.1028 26.3091 C 71.4718 25.937 71.8743 25.6384 72.3081 25.4175 C 72.3666 25.3973 72.4954 25.2938 72.6947 25.1012 C 72.8868 24.9127 73.1093 24.7711 73.3582 24.6829 C 73.6047 24.5915 73.8488 24.4774 74.0833 24.3423 C 74.321 24.204 74.5074 24.1328 74.6443 24.1344 L 74.7732 24.1344 C 74.8108 24.1344 75.0893 24.0025 75.608 23.7396 L 75.7024 23.7364 C 75.7424 23.7396 75.8441 23.7809 75.9993 23.8707 L 76.0313 23.8707 L 76.2874 23.7437 C 76.3275 23.7202 76.3787 23.7081 76.4443 23.7081 C 77.095 23.7129 77.4503 24.1668 77.5128 25.081 C 77.5344 25.2703 77.5864 25.3682 77.6704 25.3682 C 77.7753 25.3682 77.9249 25.1724 78.1218 24.7881 C 78.3131 24.3974 78.7293 24.2056 79.3608 24.208 C 79.8154 24.2097 80.0378 24.5009 80.0363 25.0883 C 80.0363 25.7784 79.7281 26.4297 79.1166 27.0453 C 79.075 27.1303 79.0438 27.2274 79.023 27.3325 L 78.7981 27.983 L 78.7981 28.0178 C 78.7981 28.0817 78.7525 28.1691 78.6636 28.2799 C 78.5716 28.39 78.53 28.4895 78.53 28.5752 L 78.562 28.9725 L 78.4948 29.4182 C 78.4948 29.6189 78.5324 29.7532 78.6044 29.8179 C 78.9366 29.7346 79.1823 29.5962 79.3328 29.3996 C 79.484 29.2038 79.5912 29.093 79.6537 29.0736 L 79.8105 29.0097 C 79.9026 28.8527 80.0146 28.7184 80.1403 28.61 ZM 74.9277 28.593 C 74.9741 28.3584 75.0981 28.1828 75.3158 28.0583 C 75.5295 27.9385 75.6584 27.8107 75.7024 27.6853 C 75.8993 27.5372 76.1858 27.2743 76.5604 26.8924 C 76.9309 26.5098 77.1158 26.2776 77.1158 26.191 C 77.1198 26.1602 77.0982 26.1416 77.0574 26.1416 L 77.0261 26.1449 L 76.8997 26.2217 L 76.6164 26.191 L 76.3162 26.2201 L 76.0986 26.106 L 75.8937 26.1376 L 75.58 26.0753 C 75.4127 26.0753 75.2702 26.1101 75.1478 26.1772 C 75.0293 26.2501 74.794 26.3237 74.4531 26.407 C 74.1129 26.4887 73.8072 26.6368 73.5342 26.8415 C 73.2645 27.0453 73.0621 27.1497 72.938 27.1497 C 72.8604 27.3107 72.6163 27.5388 72.1969 27.8333 C 71.9432 27.9199 71.7791 28.1036 71.7063 28.3908 C 71.431 28.6141 71.2997 28.7419 71.2997 28.7742 L 71.1876 29.0428 C 71.1012 29.1189 70.9964 29.1788 70.8707 29.2265 C 70.7458 29.2742 70.6714 29.3818 70.6474 29.5606 C 70.629 29.7378 70.5554 29.8923 70.437 30.0388 C 70.3169 30.1804 70.2513 30.2944 70.2513 30.381 C 70.2513 30.9036 70.3497 31.1625 70.549 31.1641 C 70.6378 31.1641 70.8083 31.1043 71.0828 30.9951 C 71.3477 30.8842 71.5006 30.809 71.5446 30.7653 C 71.5878 30.7224 71.6694 30.6803 71.7959 30.6383 L 72.0936 30.4805 C 72.136 30.4384 72.1857 30.4126 72.2361 30.4012 C 72.2897 30.3899 72.3394 30.3592 72.3929 30.2977 C 72.4458 30.2378 72.5402 30.1779 72.6787 30.1051 C 72.8115 30.0388 72.9204 29.9465 72.9908 29.8317 C 73.1709 29.7216 73.4583 29.5631 73.8536 29.3357 L 74.1833 29.0841 C 74.4194 28.9789 74.5619 28.8891 74.6139 28.8139 C 74.6644 28.7387 74.7732 28.665 74.9277 28.593 Z" fill="#ffffff"/>
						</g>
					</g>
					<g>
						<path d="M 21.6036 11.1769 L 21.7113 11.1259 L 22.2179 11.1259 C 22.3691 11.1259 22.5856 10.8832 22.8778 10.3969 C 22.8998 10.3605 23.2335 10.1971 23.8714 9.8978 L 23.9451 9.7958 C 24.1231 9.5863 24.2455 9.4496 24.3212 9.3776 L 24.6758 9.3792 C 24.7018 9.3792 24.8014 9.2958 24.9763 9.1316 C 25.1548 8.9666 25.5265 8.7789 26.0903 8.5726 C 26.6598 8.3614 27.0292 8.1899 27.2064 8.0507 C 27.2781 8.0176 27.5554 7.9666 28.0312 7.8986 L 28.555 7.7676 L 28.9664 7.8194 C 29.6266 7.821 30.0965 8.4326 30.379 9.6559 C 30.379 9.7254 30.411 9.8355 30.4722 9.9803 C 30.5319 10.13 30.5667 10.2408 30.5667 10.3112 C 30.5651 11.0434 30.3058 11.8087 29.7903 12.6121 L 29.5291 13.5805 C 29.5291 13.6129 29.4634 13.7423 29.3281 13.9705 C 29.1997 14.1954 29.0812 14.4607 28.9796 14.7666 C 28.8815 15.0732 28.6146 15.5279 28.1749 16.1387 C 28.0992 16.3507 27.9908 16.6743 27.8535 17.1209 C 27.7139 17.5634 27.5998 17.8563 27.5049 17.9938 C 27.4109 18.133 27.1656 18.6572 26.7726 19.5633 C 26.3765 20.467 26.1808 21.0002 26.1792 21.1539 C 25.9899 21.3465 25.8611 21.6701 25.7922 22.124 C 25.7234 22.5754 25.5945 23.005 25.4073 23.4047 L 25.3677 23.5859 C 25.7654 23.395 25.9647 23.0932 25.9663 22.6725 C 25.9663 22.6223 26.0735 22.4904 26.2849 22.2801 L 26.4357 21.916 C 26.5838 21.6733 26.7158 21.5325 26.8295 21.4953 C 26.8527 21.3586 26.9868 21.1539 27.2225 20.8853 C 27.4578 20.6159 27.6194 20.4266 27.6962 20.3238 C 27.7807 20.2187 27.9131 20.1103 28.1024 19.9962 C 28.2861 19.8862 28.5002 19.4533 28.7399 18.7042 C 28.7655 18.5658 28.8599 18.4525 29.026 18.3652 C 29.1969 18.2786 29.3409 18.1346 29.4514 17.9339 C 29.5607 17.7325 29.6551 17.6022 29.7335 17.5286 L 29.878 17.2171 C 30.0197 17.0432 30.1109 16.9372 30.1641 16.9016 L 31.0817 15.3345 C 31.5663 14.9017 31.836 14.5635 31.8868 14.3176 L 32.0349 14.2658 L 32.1473 14.2658 C 32.3455 14.0392 32.4779 13.8831 32.5407 13.7941 C 32.5407 13.2739 32.6824 12.9284 32.9605 12.765 C 33.241 12.5967 33.4443 12.3977 33.5699 12.1631 C 33.6956 11.9293 33.8321 11.8128 33.9825 11.8128 C 34.0181 11.8128 34.0882 11.8645 34.187 11.9673 L 34.2234 11.9673 C 34.2603 11.9673 34.3007 11.8807 34.3371 11.7068 L 34.3371 11.4479 C 34.3371 11.1485 34.3999 10.905 34.524 10.7141 C 34.6528 10.5215 34.8165 10.3969 35.0302 10.3338 C 35.2422 10.278 35.4468 10.0547 35.6492 9.6712 C 35.8469 9.2869 36.075 9.0871 36.3311 9.0693 C 36.5853 9.0556 36.7557 8.914 36.8442 8.6535 C 36.933 8.3922 37.2019 8.1082 37.6485 7.8024 C 38.0967 7.4982 38.3772 7.3315 38.4905 7.304 C 38.6005 7.2789 38.7042 7.2312 38.7986 7.16 C 38.8903 7.0896 38.9867 7.0532 39.0879 7.0548 C 39.2132 7.0548 39.3937 7.109 39.6285 7.211 L 39.9651 7.3186 C 40.2516 7.4933 40.5181 7.8177 40.7678 8.2878 L 40.9527 8.5515 L 40.9527 8.6559 L 40.9891 9.1001 L 40.9891 9.3112 C 41.1488 9.4148 41.2308 9.52 41.2308 9.6259 L 41.0992 9.9649 C 41.0491 10.0871 41.0215 10.2295 41.0215 10.3969 C 41.0215 10.5612 41.0139 10.7254 41.002 10.8929 C 40.9891 11.0612 40.9739 11.2157 40.9527 11.3621 C 40.9351 11.5126 40.9103 11.6526 40.8759 11.7828 C 40.8467 11.9123 40.8102 12.0369 40.7758 12.1477 C 40.7379 12.2602 40.6906 12.3694 40.6438 12.4721 L 40.4913 13.3111 C 40.4401 13.6412 40.3049 14.0384 40.0856 14.5012 C 39.8651 14.9607 39.7366 15.2843 39.6978 15.4664 C 39.6598 15.65 39.5753 15.8984 39.4337 16.2123 L 39.4725 16.3693 L 39.4713 16.7358 C 39.8563 16.6686 40.0487 16.4575 40.0515 16.1096 C 40.0527 15.7415 40.21 15.4753 40.5209 15.2981 L 40.9327 14.8297 C 41.2604 14.0271 41.6618 13.5077 42.1336 13.2634 C 42.1336 12.9851 42.2521 12.697 42.4914 12.4042 L 43.2013 11.46 L 43.7103 11.0701 C 43.9352 10.4285 44.1925 10.0337 44.4778 9.8937 L 44.89 9.5297 C 45.1413 9.3573 45.2826 9.1882 45.3114 9.0224 C 45.345 8.8582 45.4402 8.6858 45.6031 8.5151 C 45.768 8.3388 46.0049 8.0515 46.317 7.6511 L 46.4675 7.5459 L 46.6552 7.2838 C 46.7928 7.181 46.9465 7.0961 47.1246 7.0233 L 47.273 6.9173 C 47.5859 6.5928 47.8669 6.3671 48.1154 6.2555 C 48.3667 6.1438 48.6452 5.9561 48.9609 5.6956 L 49.6148 5.5686 C 49.7621 5.4982 49.8657 5.461 49.9166 5.461 C 51.0983 5.465 51.6901 6.4052 51.6833 8.2716 L 51.6453 8.6883 L 51.6797 10.2068 C 51.3608 10.922 51.2039 11.299 51.2039 11.3298 L 51.2423 11.8047 C 51.2423 11.871 51.1575 12.0789 50.9974 12.4179 C 50.8353 12.7601 50.7353 12.964 50.7045 13.0344 C 50.6733 13.1008 50.5576 13.2885 50.3563 13.5805 L 50.1711 14.3661 C 50.1074 14.5416 50.0022 14.7067 49.8501 14.8636 L 49.8477 15.1784 C 49.8477 15.4373 49.6052 15.8329 49.1142 16.3515 C 49.0522 16.807 48.9417 17.1419 48.7841 17.3628 C 48.628 17.578 48.5087 17.8053 48.4275 18.0424 C 48.3459 18.2754 48.2194 18.4978 48.0425 18.7058 C 48.0425 18.9347 47.9345 19.3158 47.7224 19.8587 C 47.5103 20.3991 47.3442 20.7413 47.2246 20.8894 C 47.1066 21.0398 46.9829 21.2971 46.8564 21.6612 L 46.6876 21.768 C 46.6127 22.429 46.5243 22.8052 46.4227 22.8909 L 46.1249 22.84 L 46.1249 22.9443 C 46.1249 22.9775 46.1494 23.0406 46.1974 23.128 C 46.2506 23.2137 46.2694 23.3116 46.2694 23.4128 C 46.2694 23.5398 46.2354 23.6409 46.1589 23.7283 C 46.0837 23.8165 46.0401 23.9022 46.0293 23.9904 C 46.0177 24.077 45.9869 24.1635 45.944 24.2509 C 45.9025 24.3375 45.8736 24.5074 45.8616 24.7622 C 45.844 25.0163 45.754 25.3609 45.5779 25.7921 C 45.403 26.2339 45.3074 26.5267 45.2978 26.6829 C 45.2826 26.8415 45.261 26.9749 45.2405 27.0761 C 45.2137 27.1796 45.2006 27.2864 45.2006 27.3924 C 45.1978 27.4944 45.1661 27.767 45.1069 28.2039 C 45.3402 28.9911 45.5035 29.5218 45.6031 29.8025 C 45.7015 30.0825 45.7488 30.2661 45.7516 30.3543 C 45.7488 31.0509 45.6855 31.5185 45.5611 31.7547 C 45.4334 31.9869 45.1281 32.1059 44.6447 32.1026 C 44.3342 32.1018 44.0676 31.9505 43.8364 31.6431 C 43.6071 31.3381 43.4098 31.1852 43.2329 31.1852 L 43.2365 30.7127 L 43.2001 30.6601 L 42.8979 30.6561 C 42.8755 30.6245 42.8235 30.5647 42.7407 30.474 C 42.6586 30.3891 42.583 30.2669 42.5078 30.1067 L 42.3942 29.9522 C 42.2969 29.7775 42.2117 29.487 42.1368 29.0882 L 42.0264 28.5655 L 42.0644 28.1472 L 42.0328 27.4919 C 42.0328 27.318 42.046 27.1756 42.068 27.0712 L 42.1052 26.3657 C 42.1052 26.3002 42.1317 26.1449 42.1821 25.907 C 42.2333 25.6732 42.2653 25.3949 42.2813 25.0705 C 42.2917 24.7501 42.3505 24.5009 42.4485 24.3278 C 42.5502 24.1554 42.6058 24.005 42.6202 23.8812 C 42.6334 23.7606 42.6678 23.6619 42.7211 23.5794 C 42.7799 23.5042 42.8251 23.3092 42.8624 22.9937 C 42.9044 22.6798 43.034 22.429 43.2589 22.2356 C 43.3857 21.9266 43.4882 21.628 43.5811 21.3465 C 43.8431 20.8384 43.9824 20.5892 43.9944 20.5892 L 44.2542 20.5892 C 44.1321 20.3821 44.0681 20.2591 44.0681 20.2243 C 44.0696 19.7551 44.2017 19.5156 44.4642 19.5156 C 44.515 19.5156 44.5763 19.535 44.6511 19.5747 L 44.7252 19.3611 L 44.6511 18.9177 C 44.6511 18.6208 44.8144 18.3255 45.1413 18.0286 C 45.1413 17.5205 45.3114 17.0699 45.6508 16.6694 L 45.6155 16.2536 C 45.6891 16.1476 45.7952 15.9162 45.9329 15.561 C 46.0705 15.201 46.2474 14.841 46.4611 14.4761 L 47.0433 13.2464 L 47.3038 12.8289 C 47.3038 12.8451 47.311 12.8516 47.3151 12.8394 C 47.3198 12.8305 47.3334 12.8014 47.3514 12.7399 C 47.373 12.6744 47.3927 12.5846 47.4203 12.4624 L 47.5335 12.0676 L 47.6656 11.8613 C 47.9901 11.7432 48.1498 11.5846 48.1506 11.3904 C 48.1506 11.3581 48.0994 11.2456 48.0013 11.0482 L 48.0037 10.9463 C 48.0065 10.8079 48.0798 10.634 48.2278 10.4236 C 48.3787 10.2141 48.5204 9.9237 48.6496 9.5483 C 48.7841 9.1729 48.8501 8.9423 48.8501 8.8541 C 48.8501 8.7878 48.8217 8.7538 48.7748 8.7538 C 48.3755 8.7497 48.1078 8.9504 47.9705 9.3517 C 47.9705 9.4577 47.7256 9.6623 47.2382 9.973 L 47.049 10.3654 C 46.9017 10.5588 46.7696 10.6526 46.6567 10.6518 C 46.5455 10.6518 46.4006 10.7497 46.2194 10.9495 C 46.0373 11.1485 45.6383 11.604 45.0265 12.3047 C 44.4158 13.0126 43.9628 13.5894 43.6767 14.0392 L 43.2437 14.4575 C 43.0668 14.5781 42.982 14.6751 42.982 14.7447 C 42.982 14.9211 42.874 15.1484 42.6611 15.4235 L 42.4362 15.8135 C 42.2645 15.7277 42.1628 15.6856 42.138 15.6856 C 41.9988 15.6856 41.8839 15.7779 41.7815 15.9672 C 41.8807 16.1096 41.9291 16.1969 41.9291 16.2285 C 41.9291 16.5125 41.7427 16.7948 41.3701 17.0909 L 40.559 18.2632 C 40.5366 18.2988 40.4425 18.3959 40.2805 18.5496 C 40.1144 18.7058 39.9963 18.9032 39.9151 19.137 C 39.8326 19.3716 39.6125 19.7842 39.2468 20.3643 C 38.8831 20.9476 38.6693 21.2575 38.6077 21.3052 C 38.5445 21.3465 38.4717 21.4646 38.3816 21.6547 C 38.2956 21.8465 38.1131 22.1175 37.8386 22.4638 C 37.5637 22.81 37.4068 23.1911 37.3672 23.6102 C 37.1307 23.7315 37.0162 23.8367 37.0162 23.9249 L 36.9002 24.1854 L 36.7489 24.2881 C 36.7237 24.3585 36.7089 24.4774 36.6937 24.6409 C 36.6813 24.8092 36.4316 25.1028 35.9449 25.5292 C 35.4524 25.9523 35.1522 26.1651 35.0266 26.1651 C 34.9858 26.1651 34.9321 26.1983 34.8549 26.2687 C 34.7813 26.3399 34.7313 26.373 34.7056 26.373 C 34.6685 26.3746 34.5052 26.2687 34.2098 26.0559 C 33.9197 25.8455 33.7048 25.3569 33.5699 24.5875 L 33.7224 23.9079 L 33.6504 23.3594 C 33.6504 23.2542 33.7076 23.1166 33.8293 22.9403 C 33.9469 22.7671 34.0085 22.5479 34.0085 22.285 C 34.2098 21.6571 34.3591 21.2154 34.4615 20.9525 L 34.4991 20.535 C 34.5472 20.3611 34.632 20.1637 34.7533 19.9517 C 34.8725 19.7268 34.9449 19.4833 34.9702 19.2147 C 34.9926 18.9404 35.0754 18.7705 35.2139 18.7025 C 35.3519 18.6305 35.8602 17.578 36.7401 15.5392 L 36.7413 15.1695 L 37.2839 13.8669 C 37.4468 13.4818 37.6485 13.0457 37.8866 12.5555 L 38.0571 11.9543 C 37.6697 11.7464 37.466 11.6396 37.4388 11.6396 C 37.3672 11.6396 37.2747 11.7068 37.1603 11.8451 C 37.1579 12.1461 36.7897 12.4503 36.0546 12.7626 C 35.907 12.8645 35.7117 13.1169 35.4768 13.5182 L 34.9509 13.9349 C 34.8725 14.0028 34.7533 14.1428 34.5944 14.3523 L 34.3291 14.6921 C 34.0181 14.7973 33.7493 15.0376 33.5275 15.4211 L 33.0201 15.9162 C 32.8701 16.091 32.7672 16.2236 32.7164 16.3086 C 32.6664 16.3968 32.4383 16.5861 32.0253 16.8838 L 31.7264 17.2989 L 31.4438 17.5068 C 31.245 17.8053 31.0945 18.0577 30.9941 18.2681 C 30.8968 18.4744 30.7615 18.5982 30.6023 18.6305 L 30.1889 18.8417 C 30.1141 19.2891 29.8828 19.7268 29.4946 20.1467 L 28.9504 21.0852 C 28.8508 21.2089 28.7631 21.302 28.6875 21.3732 C 28.639 21.5495 28.5498 21.6685 28.4286 21.7364 C 28.2625 22.0188 28.1553 22.2089 28.1057 22.3149 L 27.8811 22.5479 C 27.5446 22.7218 27.3761 22.8634 27.3761 22.967 L 27.4109 23.4346 C 27.4109 23.628 27.2601 23.8116 26.9623 23.9839 C 26.8354 24.0689 26.7631 24.2097 26.7446 24.4046 C 26.7286 24.5948 26.6798 24.7954 26.6026 25.0041 L 26.2664 25.0041 C 26.2324 25.0025 26.1096 25.0907 25.9127 25.2654 C 25.8879 25.2654 25.8643 25.2824 25.8378 25.3132 L 25.9115 25.9175 C 25.9083 26.1263 25.8058 26.3657 25.6102 26.6392 C 25.4084 26.9062 25.254 27.1457 25.1512 27.356 C 25.0407 27.5664 24.9635 27.6667 24.915 27.6667 L 24.8034 27.6667 L 24.6898 27.7727 C 24.7018 28.1019 24.5445 28.4612 24.2203 28.8438 L 23.9935 29.2354 C 23.9218 29.3228 23.7073 29.7572 23.3572 30.5412 C 23.0106 31.3268 22.6773 31.9635 22.3672 32.4497 C 22.0522 32.9359 21.7681 33.2628 21.5012 33.4286 C 21.2407 33.5953 20.9606 33.762 20.6605 33.9327 L 19.8925 33.7256 C 19.8201 33.5338 19.7092 33.3736 19.5684 33.2555 C 19.4239 33.1293 19.3543 32.9999 19.3543 32.8615 L 19.131 31.9416 C 19.131 31.6989 19.2006 31.3988 19.3407 31.042 C 19.4775 30.6868 19.564 30.4037 19.5932 30.2062 C 19.6236 30.008 19.6992 29.7378 19.8113 29.3956 C 19.9254 29.0574 19.9818 28.8697 19.9818 28.8349 C 19.9818 28.3641 20.0366 28.072 20.1422 27.9612 C 20.251 27.8471 20.4924 27.589 20.8669 27.191 C 20.8909 27.1934 20.9045 27.1562 20.9045 27.0882 L 20.9045 27.0316 L 20.8685 26.5907 C 21.1558 25.907 21.3367 25.5713 21.4136 25.5713 C 21.4391 25.5713 21.4884 25.5874 21.5636 25.6214 L 21.4512 25.0462 C 21.4512 24.9782 21.5176 24.8642 21.6569 24.708 C 21.7941 24.5503 21.9009 24.3796 21.9794 24.1854 L 21.9022 23.8723 L 21.9022 23.7679 C 21.9054 23.4386 22.0606 23.0972 22.374 22.7518 C 22.4192 22.611 22.5228 22.2534 22.6741 21.679 L 23.1679 20.4776 C 23.2936 20.1483 23.424 19.9258 23.5597 19.8117 C 23.6981 19.7009 23.7737 19.5633 23.787 19.408 C 23.799 19.2535 23.8446 19.0755 23.9218 18.8829 C 23.9218 18.9736 23.9279 18.9784 23.947 18.8983 C 23.9662 18.8182 23.9999 18.6475 24.0451 18.3878 C 24.0887 18.1265 24.2267 17.9186 24.4673 17.7616 C 24.757 16.7333 24.9843 16.2204 25.1456 16.2204 C 25.1948 16.222 25.2636 16.2576 25.3484 16.3264 L 25.4273 16.3264 C 25.623 16.3264 25.7234 16.2261 25.7234 16.0141 C 25.7242 15.9461 25.7006 15.9122 25.6542 15.9122 C 25.5401 16.0853 25.4397 16.1662 25.3524 16.1662 C 25.2636 16.1702 25.22 16.1346 25.22 16.0667 C 25.22 16.0295 25.2384 15.9979 25.2764 15.9575 L 25.6934 14.7868 L 25.7298 14.2884 C 25.781 14.1849 25.8799 14.0271 26.0316 13.82 L 26.3481 13.2229 L 26.3481 12.9576 C 26.3481 12.9228 26.4089 12.7423 26.5209 12.422 C 26.6346 12.1008 26.7158 11.7828 26.767 11.4681 L 27.0872 10.816 C 27.1376 10.6073 27.162 10.4139 27.162 10.2408 C 27.1656 9.9779 27.1404 9.846 27.0896 9.846 L 26.0023 10.13 C 25.4177 10.5523 24.9975 10.8832 24.7446 11.1259 L 24.3148 11.2561 C 24.2916 11.2561 24.1259 11.3727 23.8186 11.6089 C 23.5121 11.8451 23.2424 11.9738 23.0142 12.0013 C 22.7814 12.0247 22.5781 12.1517 22.404 12.3775 L 22.3284 12.4284 L 21.9734 12.4284 C 21.8353 12.6566 21.7409 12.8257 21.6901 12.9406 C 21.6401 13.0555 21.5956 13.108 21.56 13.108 C 20.2971 14.2771 19.4979 14.981 19.1598 15.2269 C 18.822 15.4696 18.5692 15.6921 18.3915 15.8936 C 18.217 16.0934 18.0641 16.2382 17.9441 16.3256 L 17.9385 16.6403 C 17.9385 16.9372 17.786 17.2722 17.4795 17.6467 C 17.1741 18.0238 16.908 18.2098 16.6848 18.2098 C 16.6103 18.2098 16.491 18.1516 16.3374 18.0367 C 16.1833 17.9226 16.0104 17.8498 15.8156 17.8142 C 15.6211 17.7802 15.5262 17.4453 15.5294 16.8167 C 15.5294 15.9235 16.058 15.1161 17.1073 14.3855 C 17.267 14.2811 17.4183 14.159 17.5559 14.0206 C 17.6924 13.8823 18.2486 13.5433 19.2226 13.0021 L 19.7673 12.6404 C 19.8925 12.464 20.1022 12.303 20.3955 12.1542 C 20.686 12.0102 20.9166 11.8823 21.0866 11.7812 C 21.2555 11.6752 21.3884 11.6032 21.4884 11.5709 L 21.6036 11.1769 ZM 39.1096 17.5448 L 39.2984 17.0731 L 39.2984 17.0189 C 39.2984 16.9849 39.2768 16.9696 39.2236 16.968 C 39.1003 16.968 38.9999 17.1419 38.9235 17.4914 C 38.9463 17.5966 38.9719 17.6484 38.9959 17.6484 C 39.0471 17.6484 39.0847 17.612 39.1096 17.5448 Z" fill="#ffffff"/>
					</g>
					<g>
						<path d="M 57.9964 18.5334 L 56.5178 19.5731 L 58.7672 21.0358 L 56.0359 20.5803 L 54.9927 22.6296 L 55.0347 20.4654 L 53.1891 20.3101 L 55.0031 19.2721 L 54.8223 17.5521 L 55.9271 18.7859 L 57.9964 18.5334 Z" fill="#ffffff"/>
					</g>
				</g>
			</g>
			<g>
				<path d="M 5.6716 55.555 C 5.7308 55.555 5.7817 55.5437 5.8253 55.5146 C 5.8681 55.4903 5.8881 55.4466 5.8881 55.3973 L 5.9005 51.2833 C 5.9005 51.2259 5.8793 51.1903 5.8381 51.1684 C 5.7941 51.1482 5.7437 51.1385 5.6837 51.1385 L 5.6876 50.9759 L 7.7117 50.9815 L 7.7117 51.1433 C 7.6737 51.1433 7.6396 51.1514 7.598 51.17 C 7.5573 51.1895 7.5385 51.2129 7.5385 51.2501 C 7.5385 51.2833 7.554 51.3197 7.5812 51.3683 C 7.6105 51.4136 7.6432 51.4662 7.6769 51.522 L 9.2203 53.8706 L 10.7882 51.5576 C 10.8358 51.4799 10.8763 51.4176 10.9023 51.3731 C 10.9267 51.327 10.9395 51.2833 10.9395 51.2501 C 10.9395 51.183 10.8926 51.1514 10.7978 51.1514 L 10.801 50.9888 L 12.8035 50.9953 L 12.8035 51.1595 C 12.7446 51.1595 12.6962 51.166 12.6502 51.1903 C 12.6086 51.2121 12.587 51.2461 12.587 51.3027 L 12.5738 55.4143 C 12.5738 55.4652 12.5958 55.5081 12.6394 55.534 C 12.6834 55.5631 12.7346 55.5785 12.7906 55.5785 L 12.7906 55.7395 L 11.0903 55.733 L 11.0903 55.5712 C 11.2849 55.5712 11.3829 55.517 11.3829 55.4102 L 11.3917 52.4176 L 11.3721 52.4176 L 9.1827 55.7306 L 9.1499 55.7306 L 7.0242 52.3949 L 7.0038 52.3949 L 6.9942 55.3981 C 6.9942 55.5041 7.097 55.5583 7.2959 55.5583 L 7.2959 55.7225 L 5.6716 55.7217 L 5.6716 55.555 Z" fill="#ffffff"/>
				<path d="M 14.098 55.5785 C 14.2909 55.5809 14.3842 55.5251 14.3842 55.4199 L 14.3942 51.3238 C 14.3942 51.2162 14.3025 51.1595 14.1129 51.1595 L 14.114 51.0009 L 15.9124 51.005 L 15.9124 51.166 C 15.7231 51.1636 15.6303 51.2186 15.6303 51.327 L 15.6195 55.4248 C 15.6195 55.53 15.7135 55.5842 15.9004 55.5842 L 15.9004 55.7476 L 14.098 55.7435 L 14.098 55.5785 Z" fill="#ffffff"/>
				<path d="M 20.191 55.4345 C 20.1898 55.5445 20.269 55.5979 20.4296 55.5995 L 20.4296 55.7597 L 18.7596 55.7524 L 18.7596 55.593 C 18.8132 55.593 18.8569 55.5785 18.8953 55.5526 C 18.9357 55.5251 18.9561 55.4863 18.9561 55.4312 L 18.9641 51.8415 L 17.1774 51.8383 C 17.1125 51.8383 17.0497 51.8496 16.9872 51.8812 C 16.9268 51.9087 16.8988 51.9694 16.8988 52.0527 L 16.7031 52.0527 L 16.7031 50.7898 L 16.8988 50.7898 C 16.8988 50.8764 16.9304 50.9338 16.9933 50.9605 C 17.0529 50.9912 17.1149 51.005 17.1818 51.0066 L 21.9942 51.0196 C 22.0574 51.0196 22.1207 51.005 22.1831 50.9759 C 22.2431 50.9484 22.2744 50.8893 22.2744 50.806 L 22.4688 50.806 L 22.4644 52.0705 L 22.2679 52.0665 C 22.2679 51.9799 22.2395 51.9289 22.1775 51.8949 C 22.1171 51.8674 22.0538 51.8496 21.9882 51.8496 L 20.2014 51.8432 L 20.191 55.4345 Z" fill="#ffffff"/>
				<path d="M 22.576 55.6036 C 22.6701 55.593 22.739 55.5542 22.7953 55.4903 C 22.8506 55.4248 22.9022 55.3463 22.9526 55.2622 L 24.9703 51.7606 C 25.0183 51.6814 25.0651 51.6085 25.1019 51.5414 C 25.1436 51.4799 25.166 51.42 25.166 51.3731 C 25.166 51.3132 25.1371 51.2679 25.0903 51.2461 C 25.0399 51.2226 24.9831 51.2056 24.9266 51.1927 L 24.9266 51.0309 L 26.7562 51.0357 L 26.7562 51.1959 C 26.7074 51.2121 26.6574 51.2259 26.6086 51.2461 C 26.5549 51.2671 26.5297 51.3108 26.5297 51.3772 C 26.5297 51.4249 26.543 51.4726 26.5682 51.522 C 26.5922 51.5705 26.6302 51.6296 26.6806 51.7137 L 28.9252 55.3867 C 28.9592 55.4547 29.0068 55.5008 29.0696 55.5316 C 29.1324 55.5631 29.2021 55.593 29.2833 55.6222 L 29.2833 55.7848 L 27.3729 55.7832 L 27.3729 55.6181 C 27.4033 55.6181 27.4385 55.61 27.4822 55.593 C 27.5266 55.5712 27.5466 55.5461 27.5466 55.5081 C 27.5482 55.4515 27.517 55.369 27.4606 55.2751 L 27.052 54.6068 L 24.4084 54.5987 L 24.0182 55.2387 C 23.9426 55.3641 23.907 55.4547 23.907 55.5081 C 23.907 55.5753 23.975 55.6076 24.1131 55.6076 L 24.1131 55.771 L 22.576 55.7678 L 22.576 55.6036 ZM 26.6638 53.9386 L 25.7578 52.2582 L 24.7346 53.9313 L 26.6638 53.9386 Z" fill="#ffffff"/>
				<path d="M 35.7169 55.4814 C 35.7169 55.5882 35.7965 55.6424 35.9546 55.6424 L 35.9546 55.805 L 34.2859 55.801 L 34.2859 55.6343 C 34.3371 55.6343 34.3847 55.6222 34.4223 55.5979 C 34.4608 55.5712 34.4819 55.53 34.4819 55.4733 L 34.4916 51.886 L 32.7036 51.8812 C 32.6396 51.8812 32.5767 51.8949 32.5143 51.9257 C 32.4519 51.9572 32.4214 52.0114 32.4214 52.0972 L 32.227 52.0972 L 32.2294 50.8343 L 32.4263 50.8343 C 32.4263 50.9176 32.4547 50.9759 32.5163 51.005 C 32.5767 51.0357 32.6396 51.0495 32.7088 51.0495 L 37.5181 51.0673 C 37.5829 51.0673 37.6453 51.0495 37.7065 51.0196 C 37.7665 50.9888 37.799 50.9346 37.799 50.8497 L 37.993 50.8505 L 37.9919 52.1126 L 37.7966 52.1101 C 37.7966 52.03 37.7629 51.9702 37.7041 51.9394 C 37.6413 51.9087 37.5785 51.8949 37.5132 51.8949 L 35.7273 51.8909 L 35.7169 55.4814 Z" fill="#ffffff"/>
				<path d="M 44.1665 52.0551 C 44.1665 51.9928 44.1377 51.9427 44.0748 51.9087 C 44.0156 51.8763 43.9092 51.8585 43.7583 51.8585 L 40.2432 51.8472 L 40.2432 52.9661 L 42.3661 52.9742 C 42.511 52.9742 42.6215 52.9572 42.7015 52.9257 C 42.7807 52.8893 42.8203 52.8059 42.8203 52.6643 L 43.0164 52.6684 L 43.0128 54.0745 L 42.8159 54.0745 C 42.8183 53.9386 42.7767 53.8472 42.6982 53.8067 C 42.6174 53.7703 42.5078 53.7484 42.3633 53.7476 L 40.2404 53.7387 L 40.2352 54.9871 L 43.8536 54.996 C 43.962 54.996 44.0524 54.9749 44.1221 54.9353 C 44.1881 54.8932 44.2229 54.8342 44.2229 54.7622 L 44.4202 54.7622 L 44.4158 56 L 44.2205 55.9992 C 44.2205 55.911 44.1853 55.8576 44.1193 55.8455 C 44.0472 55.8325 43.9608 55.8285 43.8516 55.8285 L 38.8042 55.8131 L 38.8042 55.6473 C 38.8542 55.6473 38.8994 55.6343 38.9391 55.6109 C 38.9771 55.5842 38.9991 55.5437 38.9991 55.4903 L 39.0115 51.3941 C 39.0115 51.3375 38.9927 51.2987 38.9547 51.2704 C 38.9114 51.2445 38.8702 51.2332 38.817 51.2332 L 38.817 51.0681 L 43.7583 51.0811 C 43.9092 51.0811 44.0156 51.0665 44.0784 51.0244 C 44.1377 50.9888 44.1697 50.9346 44.1697 50.8683 L 44.3646 50.8683 L 44.3618 52.0592 L 44.1665 52.0551 Z" fill="#ffffff"/>
				<path d="M 44.7856 55.6642 C 44.8804 55.657 44.9536 55.6149 45.0081 55.5526 C 45.0605 55.4863 45.1161 55.4102 45.1653 55.3261 L 47.1774 51.8229 C 47.2302 51.7469 47.2746 51.6733 47.3126 51.6053 C 47.3527 51.5414 47.3774 51.4823 47.3774 51.4378 C 47.3774 51.3731 47.3503 51.3335 47.3002 51.3108 C 47.2482 51.2833 47.1966 51.2671 47.1385 51.2558 L 47.1385 51.094 L 48.9666 51.0972 L 48.9666 51.2598 C 48.9189 51.2704 48.8673 51.2898 48.8193 51.3108 C 48.7645 51.327 48.7401 51.3731 48.7401 51.4427 C 48.7401 51.4864 48.7516 51.5357 48.7773 51.5867 C 48.8021 51.6296 48.8397 51.6943 48.8913 51.776 L 51.1339 55.4515 C 51.1699 55.517 51.2195 55.5647 51.2831 55.593 C 51.3403 55.627 51.4124 55.657 51.4901 55.6893 L 51.4901 55.8495 L 49.5848 55.8439 L 49.5848 55.6821 C 49.6132 55.6821 49.648 55.6723 49.6929 55.6545 C 49.7365 55.6343 49.7589 55.61 49.7589 55.5712 C 49.7589 55.5138 49.7297 55.4345 49.6697 55.339 L 49.2623 54.6691 L 46.6183 54.661 L 46.2254 55.301 C 46.1561 55.4288 46.1181 55.517 46.1181 55.5712 C 46.1181 55.6408 46.1841 55.6723 46.3246 55.6723 L 46.321 55.8333 L 44.7856 55.8325 L 44.7856 55.6642 ZM 48.8749 54.0009 L 47.9697 52.3205 L 46.9481 53.996 L 48.8749 54.0009 Z" fill="#ffffff"/>
				<path d="M 55.3625 54.3714 L 55.4729 54.4159 C 55.4713 54.4725 55.4841 54.5195 55.515 54.564 C 55.5662 54.6327 55.6646 54.7039 55.8123 54.7751 C 55.9579 54.8407 56.1296 54.9062 56.3213 54.9604 C 56.5134 55.0138 56.7123 55.0583 56.9216 55.0931 C 57.1304 55.127 57.3185 55.1432 57.4822 55.1432 C 57.6071 55.1432 57.7675 55.1376 57.9612 55.123 C 58.1553 55.1068 58.3494 55.0761 58.5347 55.03 C 58.726 54.983 58.8852 54.9167 59.0233 54.8342 C 59.1601 54.7484 59.2313 54.6392 59.2313 54.5009 C 59.2313 54.3585 59.1673 54.259 59.0421 54.1926 C 58.9144 54.1271 58.7471 54.0761 58.5435 54.047 C 58.3394 54.0162 58.1036 53.996 57.8395 53.9871 C 57.5746 53.9774 57.3081 53.962 57.0348 53.9458 C 56.7587 53.9248 56.491 53.8925 56.2264 53.8488 C 55.9639 53.8067 55.7274 53.7363 55.5217 53.6376 C 55.3168 53.5357 55.1524 53.3997 55.0228 53.229 C 54.8991 53.0567 54.8367 52.8318 54.8367 52.5567 C 54.8367 52.3715 54.8871 52.187 54.9943 52.0066 C 55.1028 51.8286 55.262 51.6708 55.4777 51.5309 C 55.6946 51.3941 55.9691 51.2833 56.3041 51.1959 C 56.6362 51.111 57.0276 51.0673 57.4738 51.0673 C 57.8552 51.0697 58.1877 51.094 58.4714 51.1433 C 58.7499 51.1927 58.9968 51.2445 59.2045 51.2987 C 59.4074 51.3537 59.5787 51.4055 59.7211 51.4516 C 59.8632 51.5001 59.9789 51.526 60.0709 51.526 C 60.1746 51.5268 60.2458 51.5082 60.2902 51.4726 L 60.4214 51.5438 L 59.6687 52.6732 L 59.5591 52.6328 C 59.5463 52.5503 59.5171 52.4799 59.4734 52.4265 C 59.417 52.3545 59.3234 52.2841 59.1869 52.2145 C 59.0557 52.1457 58.898 52.0802 58.7163 52.03 C 58.5347 51.9702 58.343 51.9289 58.1337 51.8949 C 57.9228 51.8642 57.7147 51.8432 57.5054 51.8432 C 57.3457 51.8432 57.1788 51.8537 57.0124 51.8731 C 56.8407 51.8909 56.6882 51.9257 56.5514 51.9694 C 56.4141 52.0106 56.2993 52.0624 56.2084 52.1344 C 56.1172 52.2032 56.0712 52.2889 56.0712 52.3917 C 56.0712 52.5341 56.136 52.6417 56.2613 52.7161 C 56.3865 52.7881 56.5538 52.8423 56.7615 52.8779 C 56.9644 52.9119 57.2001 52.9418 57.4658 52.9515 C 57.7267 52.9661 57.9964 52.9823 58.2701 53.0001 C 58.5435 53.0211 58.8132 53.0494 59.0785 53.0972 C 59.3386 53.1433 59.5747 53.2137 59.782 53.3148 C 59.9861 53.4151 60.1522 53.5478 60.2774 53.7177 C 60.4042 53.8892 60.4679 54.1052 60.4662 54.3763 C 60.4662 54.6877 60.3638 54.9474 60.1657 55.1432 C 59.9677 55.3423 59.7188 55.4952 59.4202 55.6109 C 59.1253 55.7225 58.8055 55.801 58.4618 55.8358 C 58.1197 55.873 57.8004 55.8948 57.5026 55.8916 C 57.0928 55.8916 56.7479 55.8714 56.4697 55.8325 C 56.192 55.7921 55.9587 55.7443 55.7755 55.6861 C 55.5918 55.627 55.4481 55.5785 55.3365 55.53 C 55.2296 55.4863 55.1368 55.4612 55.0576 55.4612 C 55.0084 55.4612 54.9603 55.4871 54.9159 55.534 L 54.7622 55.4612 L 55.3625 54.3714 Z" fill="#ffffff"/>
				<path d="M 66.6601 51.4726 C 66.6601 51.3642 66.5801 51.3108 66.424 51.3108 L 66.424 51.1482 L 68.0927 51.1514 L 68.0927 51.3132 C 68.0391 51.3132 67.9943 51.327 67.9543 51.3537 C 67.9166 51.3828 67.8942 51.4241 67.8942 51.4726 L 67.8831 55.5712 C 67.8831 55.6222 67.9039 55.6642 67.9446 55.6909 C 67.9815 55.7217 68.0295 55.733 68.0775 55.733 L 68.0775 55.8948 L 66.4088 55.8916 L 66.4104 55.7306 C 66.5713 55.7306 66.6505 55.678 66.6505 55.5647 L 66.6553 53.8706 L 63.167 53.8593 L 63.1654 55.5583 C 63.161 55.6109 63.1798 55.6537 63.2202 55.678 C 63.261 55.7039 63.3059 55.7217 63.3555 55.7217 L 63.3515 55.8827 L 61.7184 55.8762 L 61.7184 55.7136 C 61.8561 55.7136 61.9249 55.661 61.9249 55.5542 L 61.9369 51.4581 C 61.9377 51.3505 61.8665 51.2971 61.7312 51.2971 L 61.7312 51.1369 L 63.3683 51.1385 L 63.3683 51.3027 C 63.3151 51.3027 63.2715 51.3132 63.2294 51.3416 C 63.1931 51.3683 63.1706 51.4071 63.1706 51.4613 L 63.167 52.9936 L 66.6585 53.0066 L 66.6601 51.4726 Z" fill="#ffffff"/>
				<path d="M 72.8076 51.1126 C 73.2021 51.1126 73.6055 51.1636 74.0176 51.2671 C 74.429 51.3642 74.8044 51.5139 75.1437 51.7137 C 75.4823 51.9152 75.7584 52.1635 75.9753 52.4694 C 76.1922 52.7719 76.2971 53.1303 76.2954 53.5454 C 76.293 53.962 76.1858 54.3196 75.9689 54.6246 C 75.7488 54.9264 75.4727 55.1772 75.1334 55.3762 C 74.794 55.5712 74.4163 55.7136 74.0049 55.805 C 73.5919 55.8948 73.1893 55.9385 72.7916 55.9385 C 72.3929 55.9353 71.9896 55.8908 71.5774 55.7969 C 71.1669 55.7039 70.7899 55.5583 70.4529 55.3617 C 70.116 55.1635 69.8367 54.9102 69.619 54.6068 C 69.4037 54.3018 69.298 53.9418 69.298 53.526 C 69.2988 53.1125 69.4109 52.7541 69.627 52.4507 C 69.8447 52.1474 70.1208 51.8982 70.4617 51.7016 C 70.8027 51.5026 71.1757 51.3537 71.591 51.2558 C 72.0032 51.1595 72.409 51.111 72.8076 51.1126 ZM 72.8004 51.9427 C 72.5282 51.9394 72.2553 51.9742 71.9768 52.0495 C 71.7047 52.119 71.4574 52.2218 71.2341 52.3545 C 71.0156 52.4912 70.8371 52.6563 70.6987 52.8561 C 70.5594 53.0527 70.4921 53.2776 70.4921 53.5308 C 70.4921 53.7792 70.5586 54.0098 70.6954 54.2072 C 70.8307 54.407 71.0092 54.5745 71.2292 54.7088 C 71.447 54.8455 71.6974 54.9499 71.9712 55.0243 C 72.2473 55.0947 72.5202 55.1319 72.7947 55.1327 C 73.0676 55.1327 73.3414 55.0979 73.6183 55.03 C 73.8928 54.9555 74.1393 54.8536 74.361 54.7177 C 74.5803 54.585 74.7596 54.4159 74.8964 54.2209 C 75.0365 54.0227 75.1021 53.7962 75.1069 53.5446 C 75.1093 53.2897 75.0389 53.0656 74.9012 52.865 C 74.7636 52.6684 74.5883 52.5017 74.3642 52.3658 C 74.1473 52.2291 73.9008 52.1239 73.6255 52.0527 C 73.3518 51.9775 73.0749 51.9427 72.8004 51.9427 Z" fill="#ffffff"/>
				<path d="M 77.2855 55.9207 L 77.2878 55.7597 C 77.5536 55.7597 77.6896 55.7039 77.6896 55.5995 L 77.6984 51.5026 C 77.7009 51.395 77.5664 51.3416 77.3022 51.3416 L 77.3022 51.1797 L 81.1151 51.1903 C 81.8098 51.1927 82.3549 51.2987 82.7494 51.5139 C 83.1448 51.7291 83.3433 52.0972 83.3409 52.602 C 83.3409 53.1125 83.1415 53.4742 82.743 53.6894 C 82.3444 53.8989 81.7986 54.0049 81.1087 54.0025 L 78.9277 53.996 L 78.923 55.602 C 78.923 55.712 79.0406 55.7678 79.2711 55.7678 L 79.2687 55.928 L 77.2855 55.9207 ZM 81.2383 53.174 C 81.4769 53.174 81.6826 53.1368 81.8538 53.0575 C 82.0235 52.9823 82.1051 52.8286 82.1083 52.5972 C 82.1083 52.3715 82.0235 52.2169 81.857 52.1393 C 81.6841 52.0592 81.4792 52.0187 81.244 52.0187 L 78.9318 52.0114 L 78.931 53.1651 L 81.2383 53.174 Z" fill="#ffffff"/>
			</g>
		</g>
		<path d="M 310.5613 28.8422 L 310.5613 35.2587 C 310.4916 42.7512 308.8501 48.9832 305.6344 53.9515 L 301.2877 52.0252 C 303.5006 48.3457 304.8981 44.4793 305.4823 40.4349 L 303.531 42.1104 C 302.6259 40.7326 301.579 39.2853 300.4113 37.774 L 300.4113 53.9984 L 295.7765 53.9984 L 295.7765 40.3403 C 294.7008 42.4389 293.7068 44.201 292.8016 45.6152 L 288.407 43.938 C 291.3971 40.0587 293.6948 35.7829 295.2859 31.1148 L 289.8212 31.1148 L 289.8212 26.4288 L 295.7765 26.4288 L 295.7765 8.1769 L 300.4113 8.1769 L 300.4113 20.8538 L 302.4578 11.7311 L 305.9185 12.2739 L 305.9185 12.1275 C 305.9553 11.2739 306.3778 10.8435 307.191 10.8435 L 318.8016 10.8435 L 318.8016 8.1769 L 323.4412 8.1769 L 323.4412 10.8435 L 334.0778 10.8435 L 334.0778 15.5287 L 323.4412 15.5287 L 323.4412 17.7503 L 331.3429 17.7503 C 332.3162 17.7794 332.8076 18.26 332.8076 19.1799 L 332.8076 24.7533 L 334.9476 24.7533 L 334.9476 28.8422 L 332.8076 28.8422 L 332.8076 34.173 C 332.8076 35.1584 332.3162 35.6543 331.3429 35.6543 L 323.4412 35.6543 L 323.4412 38.0199 L 318.8016 38.0199 L 318.8016 35.6543 L 312.3148 35.6543 L 312.3148 30.9651 L 318.8016 30.9651 L 318.8016 28.8422 L 310.5613 28.8422 ZM 289.3322 12.3208 L 293.2875 11.6825 C 294.2943 15.7957 294.9946 19.7405 295.382 23.5187 L 291.4315 23.861 C 291.0073 19.9177 290.311 16.0732 289.3322 12.3208 ZM 305.9185 33.8243 L 305.9185 14.0004 L 303.7279 23.9621 L 300.4113 23.2234 L 300.4113 26.4288 L 305.0909 26.4288 L 305.0909 31.1148 L 300.4113 31.1148 L 300.4113 31.4101 C 302.2321 33.351 304.0184 35.3711 305.7784 37.4763 C 305.8433 36.3258 305.8905 35.1082 305.9185 33.8243 ZM 310.5613 24.7533 L 318.8016 24.7533 L 318.8016 22.4338 L 312.1204 22.4338 L 312.1204 17.7503 L 318.8016 17.7503 L 318.8016 15.5287 L 311.1455 15.5287 C 310.7557 15.5287 310.5613 15.7269 310.5613 16.1209 L 310.5613 24.7533 ZM 315.4353 51.0414 L 315.4353 53.3593 L 310.8005 53.3593 L 310.8005 40.0878 C 310.8005 39.0029 311.34 38.4592 312.4132 38.4592 L 331.9304 38.4592 C 333.0309 38.4592 333.5854 39.0029 333.5854 40.0878 L 333.5854 53.3593 L 328.95 53.3593 L 328.95 51.0414 L 315.4353 51.0414 ZM 315.4353 46.3522 L 328.95 46.3522 L 328.95 43.7892 C 328.9211 43.3596 328.6923 43.1484 328.2737 43.1484 L 316.1212 43.1484 C 315.6362 43.1808 315.4017 43.4106 315.4353 43.8418 L 315.4353 46.3522 ZM 323.4412 24.7533 L 328.1727 24.7533 L 328.1727 22.8294 C 328.1727 22.5673 328.0223 22.4338 327.7294 22.4338 L 323.4412 22.4338 L 323.4412 24.7533 ZM 328.1727 28.8422 L 323.4412 28.8422 L 323.4412 30.9651 L 327.7294 30.9651 C 328.0223 30.9651 328.1727 30.8187 328.1727 30.5218 L 328.1727 28.8422 Z" fill="#ffffff"/>
		<path d="M 358.3801 35.8161 L 359.9456 36.7643 C 359.1277 38.2376 358.1368 39.401 356.9819 40.2642 C 356.6345 39.6445 356.2913 39.1752 355.9407 38.8662 C 356.9883 38.0523 357.7998 37.0305 358.3801 35.8161 ZM 363.2574 33.9861 L 363.2574 33.0403 L 357.5605 33.0403 L 357.5605 31.4004 L 363.2574 31.4004 L 363.2574 30.415 L 357.4901 30.415 C 357.3308 30.415 357.25 30.3308 357.25 30.1593 L 357.25 24.5438 C 357.2581 24.3763 357.3413 24.3003 357.4901 24.3003 L 370.6965 24.3003 C 370.8646 24.3051 370.9526 24.3885 370.9526 24.5438 L 370.9526 30.1593 C 370.9526 30.3308 370.8646 30.415 370.6965 30.415 L 365.0142 30.415 L 365.0142 31.4004 L 370.6765 31.4004 L 370.6765 33.0403 L 365.0142 33.0403 L 365.0142 33.9861 L 371.6282 33.9861 L 371.6282 35.6931 L 356.5353 35.6931 L 356.5353 33.9861 L 363.2574 33.9861 ZM 359.6055 26.797 L 360.7332 25.937 L 359.0748 25.937 C 359.0212 25.937 358.994 25.9539 359.006 26.0033 L 359.006 28.6933 C 359.006 28.7395 359.03 28.7694 359.0748 28.7799 L 361.0341 28.7799 C 360.5034 27.9029 360.0248 27.2476 359.6055 26.797 ZM 363.2574 28.7799 L 363.2574 25.937 L 361.1252 25.937 C 361.5879 26.4491 362.0657 27.123 362.5555 27.9531 L 361.343 28.7799 L 363.2574 28.7799 ZM 361.5015 36.1591 L 363.1654 36.3493 C 363.0701 38.0394 362.962 39.2472 362.8652 39.9657 L 361.2062 39.6768 C 361.3973 38.549 361.5015 37.3792 361.5015 36.1591 ZM 365.0142 25.937 L 365.0142 28.7799 L 366.7349 28.7799 L 365.6985 28.0218 C 366.3091 27.1934 366.7596 26.5009 367.0398 25.937 L 365.0142 25.937 ZM 365.0958 36.4706 L 366.7197 36.0257 C 367.2671 37.575 367.6273 38.7643 367.8097 39.5895 L 366.1738 39.9365 C 365.9785 39.0409 365.62 37.884 365.0958 36.4706 ZM 368.5421 26.7428 C 368.2444 27.3689 367.8202 28.0461 367.2671 28.7799 L 369.1039 28.7799 C 369.1664 28.7694 369.1935 28.7395 369.1935 28.6933 L 369.1935 26.0033 C 369.1799 25.9539 369.1503 25.937 369.1039 25.937 L 367.2463 25.937 L 368.5421 26.7428 ZM 368.5421 36.7991 L 369.9259 35.7627 C 370.6965 36.6373 371.4954 37.7894 372.3173 39.2149 L 370.8783 40.1566 C 370.0179 38.6793 369.2375 37.5604 368.5421 36.7991 Z" fill="#ffffff"/>
		<path d="M 391.4935 31.1383 L 391.4935 33.385 C 391.4655 36.0006 390.8925 38.185 389.7687 39.9147 L 388.2521 39.2472 C 389.0244 37.9593 389.515 36.6082 389.7191 35.1988 L 389.0325 35.7789 C 388.7155 35.2959 388.3538 34.7919 387.9424 34.2668 L 387.9424 39.9365 L 386.3232 39.9365 L 386.3232 35.1584 C 385.9471 35.8962 385.599 36.5111 385.2804 37.0038 L 383.7501 36.4221 C 384.7986 35.0613 385.5957 33.5678 386.1552 31.936 L 384.2407 31.936 L 384.2407 30.2993 L 386.3232 30.2993 L 386.3232 23.92 L 387.9424 23.92 L 387.9424 28.3495 L 388.6587 25.1595 L 389.8696 25.3536 L 389.8696 25.301 C 389.8848 25.0009 390.0313 24.8464 390.3121 24.8464 L 394.3715 24.8464 L 394.3715 23.92 L 395.9962 23.92 L 395.9962 24.8464 L 399.7146 24.8464 L 399.7146 26.492 L 395.9962 26.492 L 395.9962 27.2613 L 398.7614 27.2613 C 399.0991 27.2735 399.2736 27.4418 399.2736 27.7654 L 399.2736 29.7135 L 400.022 29.7135 L 400.022 31.1383 L 399.2736 31.1383 L 399.2736 33.0039 C 399.2736 33.351 399.0991 33.5209 398.7614 33.5209 L 395.9962 33.5209 L 395.9962 34.3477 L 394.3715 34.3477 L 394.3715 33.5209 L 392.1057 33.5209 L 392.1057 31.8866 L 394.3715 31.8866 L 394.3715 31.1383 L 391.4935 31.1383 ZM 384.0743 25.365 L 385.4557 25.1417 C 385.807 26.5809 386.0464 27.9587 386.1873 29.2815 L 384.8051 29.3996 C 384.653 28.0218 384.4137 26.6772 384.0743 25.365 ZM 389.8696 32.8809 L 389.8696 25.9507 L 389.1021 29.4352 L 387.9424 29.1763 L 387.9424 30.2993 L 389.583 30.2993 L 389.583 31.936 L 387.9424 31.936 L 387.9424 32.0395 C 388.5818 32.7151 389.2069 33.4238 389.8159 34.1624 C 389.8456 33.7587 389.8591 33.3299 389.8696 32.8809 ZM 391.4935 29.7135 L 394.3715 29.7135 L 394.3715 28.898 L 392.0353 28.898 L 392.0353 27.2613 L 394.3715 27.2613 L 394.3715 26.492 L 391.6959 26.492 C 391.5566 26.492 391.4935 26.5526 391.4935 26.6894 L 391.4935 29.7135 ZM 393.1998 38.901 L 393.1998 39.7149 L 391.5807 39.7149 L 391.5807 35.0694 C 391.5807 34.6964 391.76 34.5055 392.1385 34.5055 L 398.9647 34.5055 C 399.348 34.5055 399.5425 34.6964 399.5425 35.0694 L 399.5425 39.7149 L 397.9242 39.7149 L 397.9242 38.901 L 393.1998 38.901 ZM 393.1998 37.2635 L 397.9242 37.2635 L 397.9242 36.3663 C 397.9091 36.2182 397.8337 36.1438 397.6833 36.1438 L 393.4343 36.1438 C 393.2638 36.1543 393.183 36.2344 393.1998 36.3865 L 393.1998 37.2635 ZM 395.9962 29.7135 L 397.6505 29.7135 L 397.6505 29.0428 C 397.6505 28.9474 397.5961 28.898 397.4961 28.898 L 395.9962 28.898 L 395.9962 29.7135 ZM 397.6505 31.1383 L 395.9962 31.1383 L 395.9962 31.8866 L 397.4961 31.8866 C 397.5961 31.8866 397.6505 31.8308 397.6505 31.7289 L 397.6505 31.1383 Z" fill="#ffffff"/>
		<path d="M 467.2634 37.0677 L 462.6095 37.0677 L 462.6095 35.4334 L 473.3517 35.4334 L 473.3517 34.7498 L 463.3026 35.0791 L 463.1313 33.4432 L 469.4749 33.2717 L 469.4749 32.8033 L 463.9492 32.8033 C 463.8029 32.7952 463.7268 32.7151 463.7268 32.563 L 463.7268 27.3398 C 463.7268 27.1934 463.8029 27.1149 463.9492 27.1149 L 469.4749 27.1149 L 469.4749 26.4766 L 462.7391 26.4766 L 462.7391 24.8464 L 469.4749 24.8464 L 469.4749 24.0527 L 471.158 24.0527 L 471.158 24.8464 L 477.9264 24.8464 L 477.9264 26.4766 L 471.158 26.4766 L 471.158 27.1149 L 476.597 27.1149 C 476.7563 27.1149 476.834 27.1934 476.834 27.3398 L 476.834 32.563 C 476.8252 32.6228 476.8171 32.669 476.8115 32.7151 C 476.8612 32.7984 476.9276 32.8898 477.0093 32.995 C 477.4862 33.6366 477.8849 34.232 478.2002 34.783 L 477.0957 35.4334 L 478.1361 35.4334 L 478.1361 37.0677 L 475.0388 37.0677 L 475.0388 38.6332 C 475.0388 38.9083 474.97 39.1364 474.8356 39.3265 C 474.6626 39.5256 474.4362 39.7092 474.1472 39.8516 C 473.4181 40.1873 472.2393 40.1404 470.6305 39.7343 L 470.6305 37.9641 C 471.8759 38.3913 472.725 38.4989 473.1669 38.291 C 473.2909 38.206 473.3517 38.0782 473.3517 37.8962 L 473.3517 37.0677 L 467.554 37.0677 C 468.0479 37.4439 468.6152 37.9973 469.2755 38.7214 L 467.963 39.8516 C 467.6237 39.4487 467.0258 38.8929 466.1766 38.1688 L 467.2634 37.0677 ZM 469.4749 29.2483 L 469.4749 28.61 L 465.5524 28.61 C 465.4916 28.61 465.4683 28.6359 465.4795 28.682 L 465.4795 29.2483 L 469.4749 29.2483 ZM 469.4749 31.3082 L 469.4749 30.6059 L 465.4795 30.6059 L 465.4795 31.2264 C 465.4795 31.2693 465.5067 31.3033 465.5524 31.3082 L 469.4749 31.3082 ZM 471.158 28.61 L 471.158 29.2483 L 475.0876 29.2483 L 475.0876 28.682 C 475.0757 28.6359 475.0541 28.61 474.9988 28.61 L 471.158 28.61 ZM 471.158 30.6059 L 471.158 31.3082 L 474.9988 31.3082 C 475.0588 31.3033 475.0876 31.2693 475.0876 31.2264 L 475.0876 30.6059 L 471.158 30.6059 ZM 475.0876 33.0977 C 474.9852 32.9821 474.9115 32.885 474.866 32.8033 L 471.158 32.8033 L 471.158 33.2175 L 475.0876 33.0977 ZM 475.0388 34.681 L 475.0388 35.4334 L 476.7195 35.4334 C 476.5587 35.1746 476.3922 34.9019 476.2081 34.6268 L 475.0388 34.681 Z" fill="#ffffff"/>
		<path d="M 498.9442 37.685 L 493.9181 37.685 L 494.2198 39.1526 C 492.788 39.5879 491.0385 39.8864 488.9663 40.0595 L 488.7335 38.3937 C 490.519 38.2028 492.0117 37.9722 493.2258 37.685 L 490.5958 37.685 C 490.4678 37.685 490.3966 37.6219 490.3966 37.4835 L 490.3966 31.923 C 490.3966 31.7912 490.4678 31.7159 490.5958 31.7159 L 502.0872 31.7159 C 502.2192 31.7159 502.2825 31.7912 502.2825 31.923 L 502.2825 37.4835 C 502.2825 37.6219 502.2192 37.685 502.0872 37.685 L 499.6221 37.685 C 501.543 37.9107 503.0004 38.1397 504 38.3743 L 503.6134 39.973 C 501.7631 39.5474 500.1232 39.3047 498.6953 39.2343 L 498.9442 37.685 ZM 503.7142 30.9481 C 503.7142 31.0921 503.6438 31.1641 503.4957 31.1641 L 489.0313 31.1641 C 488.9008 31.1641 488.8335 31.0921 488.8335 30.9481 L 488.8335 28.0218 C 488.8335 27.8867 488.9008 27.822 489.0313 27.822 L 503.4957 27.822 C 503.6438 27.822 503.7142 27.8867 503.7142 28.0218 L 503.7142 30.9481 ZM 495.4524 26.1732 L 495.4524 25.6853 L 489.5347 25.6853 L 489.5347 24.3545 L 495.4524 24.3545 L 495.4524 23.9864 L 497.0979 23.9864 L 497.0979 24.3545 L 503.054 24.3545 L 503.054 25.6853 L 497.0979 25.6853 L 497.0979 26.1732 L 502.3209 26.1732 L 502.3209 27.4952 L 490.2629 27.4952 L 490.2629 26.1732 L 495.4524 26.1732 ZM 493.353 29.9053 L 493.353 29.0825 L 490.4678 29.0825 C 490.4238 29.0825 490.4045 29.1027 490.4166 29.1496 L 490.4166 29.8195 C 490.4045 29.8664 490.4238 29.898 490.4678 29.9053 L 493.353 29.9053 ZM 492.0428 33.3696 L 500.6401 33.3696 L 500.6401 32.9125 C 500.6401 32.8664 500.6169 32.8437 500.5737 32.8437 L 492.0948 32.8437 C 492.0493 32.8437 492.0349 32.8664 492.0428 32.9125 L 492.0428 33.3696 ZM 500.6401 36.0426 L 492.0428 36.0426 L 492.0428 36.4811 C 492.0349 36.52 492.0493 36.5475 492.0948 36.5612 L 500.5737 36.5612 C 500.6169 36.5475 500.6401 36.52 500.6401 36.4811 L 500.6401 36.0426 ZM 492.0428 34.9812 L 500.6401 34.9812 L 500.6401 34.4246 L 492.0428 34.4246 L 492.0428 34.9812 ZM 497.7477 29.9053 L 497.7477 29.0825 L 494.9353 29.0825 L 494.9353 29.9053 L 497.7477 29.9053 ZM 499.3308 29.0825 L 499.3308 29.9053 L 502.0696 29.9053 C 502.1128 29.898 502.14 29.8664 502.14 29.8195 L 502.14 29.1496 C 502.14 29.1027 502.1128 29.0825 502.0696 29.0825 L 499.3308 29.0825 Z" fill="#ffffff"/>
		<path d="M 416.7987 38.5822 C 415.3253 39.1526 413.5806 39.6307 411.5636 40.0247 L 411.1202 38.3565 C 411.3547 38.2982 411.6124 38.2449 411.8822 38.1987 L 411.8822 28.4951 C 411.8958 28.3883 411.907 28.3147 411.9191 28.267 L 410.829 26.8447 C 411.8046 26.3601 412.5848 25.8811 413.1627 25.3852 C 413.6117 24.9734 414.1135 24.4427 414.6522 23.7865 L 415.8247 23.7865 L 418.9893 25.8666 L 417.9343 27.3067 L 415.439 25.5009 C 414.5785 26.5122 413.5885 27.3447 412.4657 27.9919 L 414.4329 27.9919 L 414.4329 26.6554 L 416.1873 26.6554 L 416.1873 27.9919 L 417.8143 27.9919 C 418.1553 28.0073 418.3258 28.1739 418.3258 28.4951 L 418.3258 30.1245 C 419.1558 28.3349 419.5455 26.3091 419.5022 24.0454 L 421.3351 24.1805 C 421.3022 24.4686 421.2806 24.7525 421.2726 25.0422 L 425.7194 25.0422 L 426.8118 25.6773 C 426.5149 28.0275 426.0947 30.0177 425.5529 31.6722 L 423.8898 31.3138 C 424.4596 29.699 424.8557 28.1529 425.0591 26.6699 L 423.3607 26.6699 L 423.3607 27.4952 L 423.3455 27.5162 C 423.3455 29.8745 423.6152 31.8866 424.1587 33.546 C 424.7133 35.2409 425.7194 37.0912 427.1799 39.0992 L 425.4344 39.7488 C 424.2762 37.9593 423.3455 35.9836 422.6316 33.8186 C 422.5924 33.9238 422.5699 34.0257 422.562 34.1268 C 421.9297 36.4407 420.9557 38.3371 419.652 39.8217 L 418.6123 39.0992 L 417.1725 39.5749 C 417.0596 39.2586 416.9324 38.9244 416.7987 38.5822 ZM 413.5718 30.8786 L 416.6466 30.8786 L 416.6466 30.0032 C 416.6322 29.7499 416.5026 29.6278 416.2568 29.6278 L 413.9758 29.6278 C 413.6926 29.6278 413.5573 29.7621 413.5718 30.042 L 413.5718 30.8786 ZM 417.8848 37.0863 C 418.1008 37.5442 418.2817 37.986 418.4305 38.4107 C 420.5947 36.1276 421.6727 32.4902 421.6727 27.4952 L 421.6727 26.6699 L 421.0829 26.6699 C 420.9885 27.1319 420.9084 27.5987 420.822 28.0801 C 420.5867 29.1197 420.2241 30.1593 419.7367 31.1908 C 419.2397 30.8405 418.7699 30.5905 418.3258 30.4554 L 418.3258 34.728 C 418.3258 35.088 418.1537 35.2627 417.7999 35.2627 L 413.5718 35.2627 L 413.5718 37.7894 C 414.5057 37.5127 415.3492 37.257 416.1031 37.0014 C 415.9103 36.5612 415.7711 36.2724 415.691 36.1236 L 417.1725 35.5257 C 417.3317 35.8121 417.5646 36.329 417.8848 37.0863 ZM 416.6466 32.5169 L 413.5718 32.5169 L 413.5718 33.6301 L 416.2032 33.6301 C 416.4954 33.622 416.6466 33.474 416.6466 33.1835 L 416.6466 32.5169 Z" fill="#ffffff"/>
		<path d="M 439.217 38.7699 L 439.217 39.6477 L 437.4716 39.6477 L 437.4716 32.122 C 437.4716 31.7046 437.6725 31.5039 438.0798 31.5039 L 443.8967 31.5039 C 444.3137 31.5039 444.5233 31.7046 444.5233 32.122 L 444.5233 39.6477 L 442.7706 39.6477 L 442.7706 38.7699 L 439.217 38.7699 ZM 451.6648 30.2613 C 451.6648 30.4392 451.5775 30.5193 451.4039 30.5193 L 438.728 30.5193 C 438.5704 30.5193 438.4912 30.4392 438.4912 30.2613 L 438.4912 24.5964 C 438.5016 24.4346 438.5792 24.3504 438.728 24.3504 L 451.4039 24.3504 C 451.5775 24.3626 451.6648 24.4427 451.6648 24.5964 L 451.6648 30.2613 ZM 439.217 37.0014 L 442.7706 37.0014 L 442.7706 33.5128 C 442.7706 33.351 442.6937 33.2717 442.5193 33.2717 L 439.4756 33.2717 C 439.2931 33.2717 439.2107 33.3542 439.217 33.5306 L 439.217 37.0014 ZM 449.828 26.1214 L 440.3071 26.1214 C 440.2655 26.1214 440.2367 26.1416 440.2367 26.195 L 440.2367 28.6666 C 440.2367 28.7225 440.2655 28.7508 440.3071 28.7508 L 449.828 28.7508 C 449.8856 28.7395 449.9113 28.7087 449.9113 28.6666 L 449.9113 26.195 C 449.8993 26.1416 449.8744 26.1214 449.828 26.1214 ZM 447.3798 38.7699 L 447.3798 39.6477 L 445.6294 39.6477 L 445.6294 32.122 C 445.6294 31.7046 445.8344 31.5039 446.2424 31.5039 L 451.9857 31.5039 C 452.4067 31.5039 452.6165 31.7046 452.6165 32.122 L 452.6165 39.6477 L 450.8605 39.6477 L 450.8605 38.7699 L 447.3798 38.7699 ZM 447.3798 37.0014 L 450.8605 37.0014 L 450.8605 33.5128 C 450.8605 33.351 450.7765 33.2717 450.6107 33.2717 L 447.6351 33.2717 C 447.455 33.2717 447.3678 33.3542 447.3798 33.5306 L 447.3798 37.0014 Z" fill="#ffffff"/>
	</g>
</svg>